<mxfile host="app.diagrams.net" modified="2023-12-03T22:48:48.800Z" agent="Mozilla/5.0 (Windows NT 10.0; Win64; x64) AppleWebKit/537.36 (KHTML, like Gecko) Chrome/119.0.0.0 Safari/537.36 Edg/119.0.0.0" etag="-ysUnUuSSd-hRiH0Yswb" version="22.1.5" type="device" pages="2">
  <diagram name="Страница — 1" id="o3sYmgAIau1fM3dsohi6">
    <mxGraphModel dx="650" dy="336" grid="1" gridSize="10" guides="1" tooltips="1" connect="1" arrows="1" fold="1" page="1" pageScale="1" pageWidth="3300" pageHeight="2339" math="0" shadow="0">
      <root>
        <mxCell id="0" />
        <mxCell id="1" parent="0" />
        <mxCell id="U41e8tuTFeEFkpECOtlq-1" value="" style="shape=image;imageAspect=0;aspect=fixed;verticalLabelPosition=bottom;verticalAlign=top;image=data:image/png,iVBORw0KGgoAAAANSUhEUgAAA48AAALnCAYAAAApuXKMAAAAAXNSR0IArs4c6QAAChl0RVh0bXhmaWxlACUzQ214ZmlsZSUyMGhvc3QlM0QlMjJhcHAuZGlhZ3JhbXMubmV0JTIyJTIwbW9kaWZpZWQlM0QlMjIyMDIzLTEyLTAzVDIyJTNBNDclM0EwMC40MzlaJTIyJTIwYWdlbnQlM0QlMjJNb3ppbGxhJTJGNS4wJTIwKFdpbmRvd3MlMjBOVCUyMDEwLjAlM0IlMjBXaW42NCUzQiUyMHg2NCklMjBBcHBsZVdlYktpdCUyRjUzNy4zNiUyMChLSFRNTCUyQyUyMGxpa2UlMjBHZWNrbyklMjBDaHJvbWUlMkYxMTkuMC4wLjAlMjBTYWZhcmklMkY1MzcuMzYlMjBFZGclMkYxMTkuMC4wLjAlMjIlMjBldGFnJTNEJTIybm5VTGt2bFEyc09FQnVldVUtclMlMjIlMjB2ZXJzaW9uJTNEJTIyMjIuMS41JTIyJTIwdHlwZSUzRCUyMmRldmljZSUyMiUyMHBhZ2VzJTNEJTIyMiUyMiUzRSUzQ2RpYWdyYW0lMjBpZCUzRCUyMlkweTNjS3YtNEEyYUlNSElhMGtpJTIyJTIwbmFtZSUzRCUyMlBhZ2UtMSUyMiUzRTdadGZsNW80Rk1BJTJGRFk4emh3VGt6eU1penN4dTFUME8wJTJCNHJsWXh5RnNIRldKMzk5QnRDZ21EU0xtMkpWbWQ5d0hnSklmenV6U1UzdVdxR3Z6NDhGTkZtTmNsamxHcFFqdyUyQmFNZElnaEtadGtxOVM4bFpKZ0d2cWxXUlpKREdUSFFYUHlUJTJCSUNYbTFYUktqYmFzaXp2TVVKNXUyY0pGbkdWcmdsaXdxaW56ZnJ2YWFwJTJCMjdicUlsRWdUUGl5Z1ZwWiUyQlNHSzhxcVRQUWolMkZKSGxDeFglMkZNNUFaMmZXRWElMkZNQk50VkZPZjdoc2dJTk1NdjhoeFhwZlhCUjJsSmozT3ByaHQlMkY1V3pkc1FKbHVNc0ZzTHJnUzVUdTJMT3hmdUUzJTJGckJGdnN0aVZOYlhOV080WHlVWVBXJTJCaVJYbDJUJTJGUkxaQ3U4VHNrdlFJcmklMkZWbVh2cUFDbzBORHhQcnpnUEkxd3NVYnFjTE8zZzA0TFdZZWQ0YkZCUHNqYkpmYndxb0IyamFZTUdJS1h0YXRIeG1RQXNNZ1IyTGNGSkxhOUg0R2lYa0ZTS0J6VGlMT29HY2tXMXprZnlFJTJGVCUyRk9DU0dMMEd1MVMwdUhoYTU1aDVnQUJQS2MxT2NyUVdRSzZsJTJCZUFmT2xlcUJtZWdKRThGZjRXcXl6UFVBa3FTZE1UVVpRbXk0ejhYQkJXaU1pSEphT0V1SEdQblZnbmNWemVScXFjdHZvdXBnZExvb2MlMkIzSnhqWDdFRm03QURPWVVtN0Fqc3ZKZndjVGFuOXF0ckJKZEhqOFBxYUd1RWtOT1VBSG9NcUJ6U28wMGxEajE2ckZ3MTVWWU5FaVFXQmZxNUlLVWxwaWl0djNmbFZHSDRtR002eVhyTXQ1c0VFOFBISmE1SmxKR3B5TG9FWGRkVU1MNVM5SXAlMkZ2ZEhWeVVhQXpFYk1Qa3pFRlV4azVJVkJaU0FRM0FOd1Q3Nk5kNk9OR3VvM3RRR0FHbTI0dXFDTlAlMkJhejN3SSUyRlBJN1k0ekRUJTJGeDlYM3pXdWdFU1R0cUxYbGdzRVRjNkRqMVNMVnJRdUNXU2Z0eHY2cVBxcENKcnZiOWdaN3YzZ1ZGMDJGN1dHbmlKSDZQWWRZbmFkWnpSMXBSSGJvNSUyQmVzSUl1M2d3T1JLSmM5bE5FJTJCNDVRenpsekU4a1pvakVxSTlkM0lIdFpjaEslMkZxNHpjTmNlN0FyazZmRDhIT1RIY3ZSNXkxdW03USUyQmJtZEFtNVhzSXNWd3hSUDgzbXZ6OU5IODVEOE9UVjNvc3BnZzVFZ2FQS0ZzVzRkVFQzeHVFTjRaUzhUZFRoRkdPOGVlRFBKcE5nT2dwR053UlZOc0ZYQmJYMkhNMVk3V1g0NGNuM3dxZlo5SGFveWw1Q0NxbUtjZE8xb3JTN3JDU1lrbkNtSDVDWGltZk9BRkxtUE5XQnZGUVljd2FRTW9lcER1U2xvaHIxSUtVJTJCVWgxSU1jaVpCOTRvbUFzNGIzWlBxb3R2bGUxSTljTmZESlhvbXZtN29RJTJGRkRVRW9XYXRUcHdCeFFzczNuYmFiS0d0cGdhOTdseGp1dHBSRHRiV3hPV2pOblNtJTJCViUyQlhwdkNuU2phbzF2b2wxSmRId2owODhlb21HNnhYYWhuYjgyVFFNJTJGbFMwYmY1THJtaDNVb0l0bTBYM29nTEpMSnB1SFVtMkZQbzJZd2pFUmUweCUyRmZRVW9YVEpxSkh1bCUyRlprM2hlWVdLdG1DdXolMkZSZ29WZWd4eFpqaWRqWUxyeUxJeHoyaldxcEpzNnFDJTJGcVlHWHlmQXFwcFE5S2FETEdMQmNWZnd2c2ZwdXFuVXFodEVHMmpWN3I1ODNvTGdtSHo2Rkg5NlpUekhnSlgyS3VJciUyRjNiTjAlMkJKVlpPazJCTVdsQ21rR1QwRVk4SVkxSUxKNmlSc3BqclprbVEwJTJCTWVVNGJPWm84czQyVXElMkJPZ2tRTm44VHFWdkw2Tnd5UlZRZzVyY01qVDV1b0dCNDFHcXJMTEw0RzhBQnJKZHZVejFOMnJVdTZBSUslMkZhcVU4NXZIeHlhNSUyRjNzNEd2VTJoenV5TUNIaU5WN3BZa2kyQ0dMQzNvQjdKTXlNJTJGamZ5VG91Y1pmVFl6Z1h3JTNEJTNEJTNDJTJGZGlhZ3JhbSUzRSUzQ2RpYWdyYW0lMjBpZCUzRCUyMnN0bWRoSGdsZV9zTDRIYWpKQmpIJTIyJTIwbmFtZSUzRCUyMiVEMCVBMSVEMSU4MiVEMSU4MCVEMCVCMCVEMCVCRCVEMCVCOCVEMSU4NiVEMCVCMCUyMCVFMiU4MCU5NCUyMDIlMjIlM0VuWkt4RG9Jd0VJYWZwbnZ0RWFLckZYVnhZbkJ1YUlVbWhTT2xCdlRwQlF0aXcwQTBhZExrJTJCNyUyRmNYUzhsd012dVpFVmRYRkFxUXhpVkhZRURZV3dUczZpJTJGQnZMd1pCdFJEM0tyNVNqTklOVlBOY0pKdTJ1cG1rQjBpTWJwT29RWlZwWEtYTUNFdGRpRzJnMU4yTFVXdVZxQU5CTm1TYTlhdXNKVEFFcm40S3gwWG95dCUyQjJqbmsxSk05cWcyaFpEWWZpRklDSXNKZzA0UTJKT0JoUWU0UlhTcjJpU1hIVmRtMlA2MFdOJTJGMyUyQkglMkJCeiUyQk90cXR4dk5ZSDMxc3I0YnlmNE9aQzhBQSUzRCUzRCUzQyUyRmRpYWdyYW0lM0UlM0MlMkZteGZpbGUlM0XQvjqnAAAgAElEQVR4XuzdC8w0VX0/8DFNW2sRWnoRAhgLjVKieKG2hVJ7QdC2aYMSCN4Q0AIiEixCEARb8EK11AaRixdE8IJSlcb0BqVqi2DEG9JQa4S0BQRtQgUhbW3M+89vkrP/88w7++w+zztnnz07nycxvjzP7pw5n3NmZ79z5px5TOOHAAECBAgQIECAAAECBAjMEHgMIQIECBAgQIAAAQIECBAgMEsgwuO2WS/ydwIECBAgQIAAAQIECBAYt0AbHrdtkx832w0e85jHBOBm3+59BAgQmCoQny+L+PEZtghlZWyVgPP0VsnXWe7Y+svY6ltnr1yevY7+IjzuYHs46HYQ0NsJEBAe9QECBQWcpwviruCmx9ZfxlbfFeyyC62S8DgAt4NuAESbIECgV8DIo45BYMcFnKd33HBMWxhbfxlbfcfUl0vUVXgcQNVBNwCiTRAgIDzqAwQKCThPF4Jd0c2Orb+Mrb4r2m0XVi3hcQBqB90AiDZBgIDwqA8QKCTgPF0IdkU329df3v72tzdnnnnmmhoffvjhzVVXXdXssssua37/qle9qnnggQcmf/vEJz7RHHHEEb1aH//4x5u77rpru23Hi0866aTmsssuK67crW93f9/2trc1Z5xxxpr9WO8199xzT1vfAw44YM3+h+Hdd9/dXHjhhc2xxx7bXH/99dvVLUzf/OY3t3+/7bbb1vx9n332aa655prm/vvvb73i3wceeGD7mltvvbV52cte1sS+3njjjc3ll1++3baf/exnN+G91157FTdd5QKExwFa10lpAESbIEBAeNQHCBQScJ4uBLuim50WHm+55ZY1YbEbElOIiQATPxFwUrhJVPGe+MlDYYSq7rYXSZvXN0JhHsweeuihNsgddNBBkwAZ+3vddddNglh6zW677dbWK4XHBx98cE3AS+Exr3uEvlNPPbW5+OKLJ1bp/WeddVbzwhe+sJciN4sXdPcxfjfPdhbpvCplCY8DtKST0gCINkGAgPCoDxAoJOA8XQh2RTc7b3jsCycRatJPjLJ1Rw6XOTz2BcUUiM8777zmyiuvbKt2/PHHN+eff/6aYBwW6fd77rln++8Ik4888sgkcA8ZHvN9jX3qC9/d9sn3sRvqV7QrF6mW8DgAa9+HTN/VqGlXQDY6jN+9EtN3MM5zO0H3doBpt190iaJu3dsBFn0rQPrQyG956LutYoDmLbaJ7tW9vKB5bhkptmM2vFQCi1wwJ47tvffee3J1Od0GdOKJJ675XX6VuHssdj8L0jbitqz8J78dq+/LVPwubj2K25KuvvrqyX717VNst7vvq/AZsVQdsfKd6TtPp3PyeufCaf2328+7Iy+Jq+/96da79OW175wa70/ntL6/d7dRefMs3e7PGx67nz3RD0455ZTm5JNPbiJApc/K/DbJZQ6PfaOA3caJ7yfxudy9XTcPc0cffXQbHuNW1wjPcTtpjCAOGR5TqI1tx09+C2vaZyOPZQ4t4XEA1+6HTBx8fbcszAqPmx3G7x6M895OkIfQaVeb+nimffD1XWEbgLd3E6973eva++lrvXKUTjBRuf3333/NXIJ5bhkp5Wq7yyewyPDY/SyJvvjWt7612XfffZtLLrmkndeTf3F4+OGH2+PwyCOPnPThbv+d55ak7mdK9+JbHgzTl/Fdd911zdyV/DV98218iVi+vr3IPVovPK53Lpzny3TUIx0X8e+4/S6Fhb73d4+RvnNqbrOMYWORbbcVZW02PEZ7X3rppZPPy2i7Qw89dM2tl9PaszufMuod8/Om3bY5pEuqb+x/GmGcNi9wWnjMg3QKjzE6GfMTY45j1OXaa69t5zzO+3131iBH+u4aZffNPfW5P2Qv+f/b6g2P0z4su1d2u5OH85GfvonFUWy62ryRicdpd/uu7E27YrfIkbDuh8y0WxYWER6nDcl3byeIL3zrjWCu9wHS98GXf5jcdNNNayaGpw+//Aps6gepnKc//enNRRdd1HSvpub9JP0trua9733va7797W9PRkDzvtcdcYjy46c7WT36SHyo/8RP/MTki2/q4yeccMLk6mEE1PyYiG2lk0PUNT4U40MrvmTH1cbu6/sCbjrBxBWzqGPcChIf1PPcMmKid5kPw2Xd6iLDY/e4j+MhLm7E8Z1uUUqfb3FFue8qcjjmv5/nfJJ/pvTN/emGx/hys9NOO7W3RKUvIflrps0fmra/y9r29ms4gXnD47z9t7tnKSTEaHl39L47nyt9yY7/j/67mfA4z5f84fTGt6V5w2P3nN333ba76M0yXgzIw2Nff817wEbDY3wHSp/PsZ2NhMf15jymY/WGG25od++www7bblEf4bHMsbvp8Ngd3UoNlK5Az5r8O+0LQr46VbfK067sxeu2soPkHzLr3bKwiPA47+0E3fC4oyOP6cPwmGOOWTPxObVzXImND6QIS4cccsgkmEXbxe8ixMVJNO8XKZillbHyMuI96Va6rms+ahHbyCd+d33yL8L5VbNueMxvoUvh8S1veUtz9tlnt4Fxv/32WxM289f3hce83PzK5LxXuct8HNjqMgosMjzmn195n47bRuMYjWM3FiVIx3H6d/fKeBxn6UrzvffeO3MxhHRsx5fufBGG1B594fGCCy5ozj333EmozS/89C2csIxta58WJzBveOyeC+f5TI5zUPrCHf09H3ma9v78XBRfkFOQ7BNZxrCxuJbbmpLmDY/594+4IN39btV3QX8Z2zPVd9p3wbyPR4vMO+cxXXRMx0HcxRIX/uYdeVwvPHYv6veF3q3MBlvTcxdT6qbD46zO/+53v3vdlaP6wuOsRp52Za8vPC5yUmz+IbPeLQtDhcfuMH7UP13ZmveKUHzAdbcz75LQfaO90+ZL9u1P+nCKL6C77777mi+W67VbGjWIgNq9raI7bzTdX9/9INxMeIxbLj75yU+2R2QExRQe4ypXTNCOD8H8S3f39d3wmL82/hb7FFerYzuuJi/mg6+mUhYZHvMLKAcffPCaEfboo3GxJJ2gd95550mQ7IbHvB/Hl+k4HrtzHvO7BfLPlL67RvrCY4zWxy1QaZGE+JIR4TMu/HRDbb79eed219RH7OtsgY3MeczPhfPM2c0/w7uf7/OGx+46AvldOH3n3EXeXTVbd/VeMW947F6sThfN0h1CfWFs1vfn7mM/FqGb13fa1Jn8To95pkd1A2Yale1+15xnakPXoDtgFX/fTK5YhO0qlrHp8JgW9Jh2It7MyGP+xaX7PJn1ruz1hcdFNlZ+0K13y8JQ4XG92003Eh7Tdua5spp7znOLTX4izPtI6jfd21bTbZt5eIyRj+5zgOJ9ER7zK7uxb+nkHV9uu1f+8i+eXZ/uf3dvW40vvTEJO/1/Co/x30972tMm99inLwx9r++Gx74vI+mLQN8ozSL7srKWT2DR4TEdSzHSGIEvPovz26zjeIj5j/EzbeSxGx7zK8L5qGT6ghXH3Ze+9KV2TkyM6HfvQJkWHvMAm24XTOExX1Y+tep6n4/L1/L2aEiBeUYe+86F85wf+8Jdujgy7f35d6SNjDxu5C6hIf3Gtq1p4XG95zxO+27UDVrTwmPfnMdFXezq1re7aF/f4EL3NfkFwb6BgPUWlZr2qI6+wZI4B6XpSPk8x77tW221zJG76fAYu9OdW5Z38mlzHtP8t2nhMv+SkFd5vSt7yxIe+8JhXxhKo2Kpfn0fJBu5EpPP49nsnMfuh9t63W298Nj9Yjjty1pq5xjdyD808nrffPPNa0avUz3z0Y/05XOzI4/pgkUeduMDMN22Gld/Y25lXE1MK6jFeyK8pqCYvkjH3/teP88znmbdcpdfPDHnscyH4bJuddHhMfpaBLhYXv0FL3hBu1hDfNbHF9yY/xi/Txf3NjvnMb9aH1fZ88+UaVfq0zyy7uh8+szZY489Js8hm3Z+ER6XtZeX3695wmMavchvnZ4VHqcFznR3zLQLgnmfn+eCbOxbutUvXYCMc9UiFlMp3zrLV0Jff1m+vRxuj8ZW3+HkxrmlHQqPXbL8A3AzI4/rXVFb78resoTHvivq3Tp1vzRNOwlsNjz2nfy6V2P6Qu5GrmbOGx7TqEDs05vf/ObmnHPOmaxCl4fHfP5i3m/yW5/Tqo4HHHDAZIGB9GWyG5i7t5GsN+exrw/nt77dcccd7chjPv8rhccIjbGP8ZNGO/pen4fH9Uaf0+133Xma067Wlf7ISvvavfLXt/pbdx+7F5byfY2LTNEfYtSqu+15lp9f76JVKmfe29anvW7W7cPdK665Se6WX1DrjjjnV2nzv3VvR1t0eEyj6BES81UjY4XjRx99tB35T32679ah7i1P83yWdT9Tup+L00Ye85HLuACUTNN+pc+L/BwRIbNvVb7Sx5Ptb63AvOFxo3MeZ90q152aEQrdY2Sj4TGd57fyofJb25rlSx9bmBpbfcv3oNUuoTc8rjfcHLcCdRcTSUT5Vd0h5zzOurIXXyBmzZcs2YzpoNvILQv5SFffl/F5vnClOvVd/Z91O0Hfaqv5CS22PW255vVOdPkX+wgCp59+enuiTPOT0m0Z6Uv1nXfe2ZYTE6jjmY35F+f8S3j8/rjjjmtiVa344hc/+S2ts1ZbTVdnZ408TBsBzOex5OExQm3c1x/1itHIdKtcd95Lfox050TE37pflue5ZaRkn552QWbaxY7kGu/LA0eq27RbUmatpNZXx3yxob6LHqnfPPjgg73PfcoDZhwH3delOnYfBZG/L392V37RKF0wSf0gHSv5yHV3Nd7uYkvdL6OLDo/Tvpj2XRyL13bDfN9zHvsWMsjvdoiRzvjJF1FId6/E52O+gmVfsO8LsbG97kXH2p4FW/oYH9P25w2P3XAX/903ZzfOb9Ff88/93DNdxIypDvHvfM7vvM95TLcK9p1zp/X5MbVpybqOLUyNrb4l+84Ytt0bHvtGOrpXyrpfcLrv2czIY3dULg9H3Stsffcx9wWiRTSig27zyrNGeDa/Ze/cUYF5RknTxP44dmOOXHeZ+s2Gx3lHDrtBJy5GxBe9dNEirfTWtUgBsfu69DmXX/SYdZtw7hTBKV8kYFbg6puX1z0mtiI87mjf8X4CyybgPL1sLbLc+zO2/jK2+i5371v+vesNj31Xk/tuJ+vOa8wn1E6b85hGnGJkcr2Jx4lu1q2saWGFdFtjGsnYyJfPHW0mB93mBYXHzduVfue08Nhts1mLWW1kFH0zdZp2Vb5vKfHu9jd722q+nbx+8ft8xH7afKn17pRYhpHHzbSD9xBYZgHn6WVuneXbt7H1l7HVd/l6XF17NDU81lWNrd1bB93W+iu9jMC84XHWYlbrhcfunMeNriw3bWRv3otHOxoe+x4Fk9+WPC08rncbWpjkt7IbeSzTv211XALO0+Nq7x2t7dj6y9jqu6P9Y+zvFx4H6AEOugEQbWLpBKaFx25gm7WYVamRx+6t9DngIsJj3+393VHZvrpPuz0/7X/XXXhcukPDDlUo4DxdYaNt4S6Prb+Mrb5b2LVWomjhcYBmdNANgGgTSycwz5zHmGPYXQxlngC1owtczXq0TOnwOG2xim65fYvp5A9a7mv07mim8Lh0h4YdqlDAebrCRtvCXR5bfxlbfbewa61E0cLjAM3ooBsA0SaWTqAv4HVXW521TH2scjv0yOO0W1UXNfK43jzsvkfzxH7FqozTVinuBs6ul/C4dIeGHapQwHm6wkbbwl0eW38ZW323sGutRNHC4wDNmA669AiBtLhQPFIiFvBJXx5TUfMuEjPtAdzdXc6fgZb/bdoX+3kWEtkMS74f0/Yp3276oh2rY8azsPKHKk97TMh6IzXpGYv5cxXTwk1jWaI/DyJhFcvIRx887bTTmmkrj05r6/xRKflr0ny8eRez6hudnLbtKCe23121NC+/7zbZ7lzJvpHHvj4575zHrmvf0v3JJa9b2q+0oFd3jmfql91nQJrzuJlPIO8hMF3Al2O9YyMCY+svY6vvRvqC124vIDwO0Cv6wmM8smDaaMOqhsfuF/y99967OeOMM6YK5+ExPYcxXjyvT9pw2s73vve95nnPe96kzPSsxa9//evNUUcdte6+DNANlmIT08LjG97whu2ev7gUO2wnZgoYeZxJ5AUEZgr4cjyTyAsygbH1l7HVV2ffMQHhccf82nengy5up4ufGEX76le/2t6m1nerWt+csDSSkR6wHSMU8dzK+EmPQMlHJ/IHce/IyGP3Ad/5iEc+wpPvQ4wKPv3pT28uuuiiJn+ES9qP2Of0GJYYWTnhhBOaY489trn++uvb+qTRmPh3/D4feXzTm97UvOY1r2mi/lHHpzzlKc3+++8/CX75A+K74TH2KR7EfMkllzTx/MHwipG3+Enb6I54deu10047TfYzt8gfPZPXuTvK9Mgjj0xG+Ka1V/STa665pomyPvjBD7b1jNHBMIv9z0dJ47WpH3TdYu7c5ZdfPukjscpnco59/NM//dO2H772ta9t3vGOd7T/n57LOEC3t4kFCSwqPC6oOoohQIBAFQLbtm2rYj+H2EnhcQjF8WxDeBygrdc76GaFxyg+wsGRRx7ZBqR8JcZ4Fubdd9/djmB255/lr4vg0TfKN89tq/l2brrppjbARLC5//772/+PW2/j55RTTmlOPvnk9t8R9uKB8LFfeRn5fnRvYY33detxyCGHbBcer7zyyubee++d3MIaIbJvP/JbU1MAPuyww5oIW+n2zBQ0wzB8UohND2bvPp8v6nXiiSdu1w7hkj9+IW/T/N9R3hVXXNHu75577tm2a3ruaNc5/hbhNBncd9997X9HfVNZ4ZAWo9lvv/1aqwiMKSSGabRP3m5Rbqnbkgc4VGxiEwKLOKkvooxNVN1bCAwmoI8PRjmKDY2tv4ytvqPoxAUrKTwOgDsrPKbRobyoNHKYB6W99tprzeIiN9988yQ8dhcJyUcv3/KWt0wNj2kEMC87jZylQBKhKW4bzeew5fM289Gq7mIe+W2SV1999WQ/po2G5reqzhMeY79TgAqrGElMI4upTvk243bhFBRT4M33K3fo3uKZrxqaRgcjnHVH69Jc1LPPPntNUMu3F+G7+7y/NI8zD4jR5rlV3q7XXnttc8stt7QBMfYh7dPFF1/cmqQQnJcrPA5wQC/ZJhZxUl9EGUvGandGJqCPj6zBd7C6Y+svY6vvDnaP0b9deBygC8wKj2nULRWVB4RukMiDQDc8ptsX03ZSwJsWjmaNPHZHx2K7eZDJb9XMF/bIF7OZJzx2FwOJcvJRt1kL5sQ+xUhn3NIZP915lHl4jL9HgDzmmGMmo5d5uM5vA43XJsP4d16vPDzG3/LbbuO/43bXKCMPnN3wOK298lHdCIXrhcdu+I+LDhEmzznnnHYEOEK/8DjAQbzEm1jESX0RZSwxsV0bgYA+PoJGHrCKY+svY6vvgF1llJsSHgdo9h0JjxsZeUy3b3ZHwjY753G9kcc8oHVXRc0DUz4S2Tfy2L1VdKMjjzEyF0Huk5/8ZNtScetsfstq/C7fZoSr2L8IhY8++uhk0aIYjTz66KPX3EraHXmcFh7j9uF8BHDekcdp7dUd1VwvPKbblvNu2l1oSHgc4CBe4k0s4qS+iDKWmNiujUBAHx9BIw9YxbH1l7HVd8CuMspNCY8DNPuOhMcofjNzHvOHpK9322oeeqKs7qMJps15zEc906ql+ZzHNDdw1pzHbnhMI38bGXlM8z332GOPyS2c08JUuhU2FudJC96kcNYNj/kcxfVGHvPwmB65cMABB2y3mu56cx7z9srnca438pjPeYzAnNoq3bZq5HGAg7eCTSzipL6IMiqgtosrLKCPr3DjFqja2PrL2OpboMuMapPC4wDNvSPhMc1z7K62mkbcIlj2rbbat8pp93bOWbetRiCZttpq9/fd21bTqqTTVn3Nn68Y+5qvHBvk+QI23dtWU6CO/48A2J0X2G2y7khcHtS6781vxX3jG9/Y3H777WtWe40Fe5J9GjnMn9EX9T3uuOOaG264oQ2y+d9OP/30dntpwZ78dt28veYdecz7QNQ5We+8886ThYa6t62m0eS+Z14O0NVtYgsEFnFSX0QZW0CnSAITAX1cZ9iIwNj6y9jqu5G+4LXbCwiPA/SKMR10G30G4wC8242WDrHNEtvoLmpUogzbHJ/AIj5fFlHG+FpOjZdJQB9fptZY/n0ZW38ZW32Xvwcu9x4KjwO0z5gOukWHxzR6l26THaC5BttEd3Q2H10crBAbGr3AIj5fUhnd56Am/PyZp30LYMXr0h0SeYPFBZX0+J98rnL+DNn0+jh+4nE+saJyeiZsvq30nFPPKh39IbEpgEUcR5vaMW9aSoGx9Zex1XcpO11FOyU8DtBYDroBEG2CAIFegUV8vnTDY3o+aexQCotx63rcJt19XE+8pvsc2vhdmisd/95///3XrJLc9/zbbuX7ytFFCGxWYBHH0Wb3zfuWT2Bs/WVs9V2+HlfXHgmPA7SXg24ARJsgQGApw2PsVD5/+s4771zziJq0091VnyP8xShizGmO96f5xPF64VFnX7SA8/Sixesub2z9ZWz1rbt3bv3eC48DtIGDbgBEmyBAYGnDY367encV4NjpvpHHCIzxEwt5pWe1xsil8Kijb4WA8/RWqNdb5tj6y9jqW2/PXI49Fx4HaAcH3QCINkGAQDXhMa0One9wWpE5fpc/3ifmOsbcxxtvvLGd05jC4+WXX76mvvm8yviD21YdEEMKOE8Pqbn62xpbfxlbfVe/B5etofA4gK+DbgBEmyBAYGnDY76ScHfksW+V4b5FdbqP9YnKpjDZV3Hh0QExpIDz9JCaq7+tsfWXsdV39Xtw2RoKjwP4OugGQLQJAgSWNjzOmvMYt6U+8MAD7bNPYzXUvjmN+ZxIcx519kULOE8vWrzu8sbWX8ZW37p759bvvfA4QBs46AZAtAkCBJYyPG50tdUYYTziiCOafMXWqFgeQONvRh51+EUKOE8vUrv+ssbWX8ZW3/p76NbWQHgcwN9BNwCiTRAgsDTh8bbbbluzL93nPJ566qnNxRdf3OTPboxweN111zWvfOUrm/e+971NvGevvfaabCcPoTH/UXjU4Rcp4Dy9SO36yxpbfxlbfevvoVtbA+FxAH8H3QCINkGAwJaHR01AYFUFnKdXtWXL1Gts/WVs9S3Ta8azVeFxgLZ20A2AaBMECAiP+gCBQgLO04VgV3SzY+svY6tv6rZf/vKXm5e85CXN17/+9ead73xnc8opp6zbo7/61a82f/RHf9R85jOfaX7wgx80z3zmM5tXv/rVzVFHHdWE4Vh+hMcBWnqsB90AdDZBgMAMgUV8viyiDA1NYCsF9PGt1K+v7LH1l7HVN/XImG4Rj5n6sR/7seZpT3tac8011zS77rprb4eNlcVPO+205v/+7/+a5z73uc2P/MiPtCHyO9/5TvPGN76xOf3000cTIIXHAT7TxnrQDUBnEwQICI/6AIHiAs7TxYlXqoCx9Zex1Tc664MPPtjEM4sjDMb8/L/7u79rrr766ua3fuu3tuvLERBf/vKXN//2b//WvOc972kOPvjg9jXf/OY3m+OOO6757ne/2743RiLH8CM8DtDKYzzoBmCzCQIE5hBYxOfLIsqYo6peQqCYgD5ejHYlNzy2/jK2+kan/dSnPtUcf/zxzbHHHts85znPaf8dATFGI7u3oKbX9v39gx/8YPt4qvPOO68544wzVvJ46FZKeBygmcd40A3AZhMECMwhsIjPl0WUMUdVvYRAMQF9vBjtSm54bP1lbPXdtm1bG/Q+8IEPNFdeeWUTj5h60Yte1Hzve99rPvzhDzdPfvKT1/TruC31/PPPbz760Y+28xvzn9tvv72dN7n//vu3K40/7nGPW8ljIq+U8DhAE4/toBuAzCYIEJhTYBGfL4soY87qehmBIgL6eBHWld3o2PrL2Or7jW98o3nxi1/cPP7xj28+8pGPNLvttltzwQUXtKOHfQvnxMhiPGIq5kTmj6iKA+Cee+5pn20ccyVjFPKnf/qnV/a4SBUTHgdo4rEddAOQ2QQBAnMKLOLzZRFlzFldLyNQREAfL8K6shsdW38ZW30vv/zy9lbTGE0899xz23782c9+tjnmmGOapz71qWsWzonRyJjXGCut9oXHmO8Yt7Pef//92z3feFUPEOFxgJYd20E3AJlNECAwp0B37sWcb/MyAgQIENgBgbi1cSw/Y/oe++ijj7bzGz//+c+3i9z8+q//etvM6ff/8A//0N7K+nu/93vt7x966KF2XuQdd9zRGx7T3++77z7hcSwHzBD1HNNBN4SXbRAgML/AIj5fFlHG/DX2SgLDC+jjw5uu8hbH1l/GVN80wvisZz2rueqqq5pddtll0pUvueSS5jWveU3zyle+snnXu97VPo7DyOP2R7qRxwE+/cZ00A3AZRMECGxAYBGfL4soYwNV9lICgwvo44OTrvQGx9ZfxlTftPjNeh143333bT70oQ81ETDjx5zHtVrC4wAff+mgS5Nmb7vttjVbPemkk5rLLrtsMqm2+/fDDz98u6sf8TDSmICbfuIhpn1LAMfrLrzwwnaoPH7iPd3t77PPPmuG2qdtOw29X3/99dup9O1j90Wx3TPPPLN3WH/e+sQSyfGT9jmuCp111lnt78Iw/dx6663txOa4tSCezzPtZ97Xxf7Fvezdq1ADdA+bILBDAos4qS+ijB1C8GYCOyigj+8g4MjePrb+Mpb6xq2lsVBOPK/x+c9/fvPYxz52u579la98pfmnf/qnNfMh43v261//+va79gtf+MI177Ha6sg+HIaqbjc8RthJnSsFsngQaSwFHOGu7+8HHXTQJBxGgLruuusm906nbcRqUHmAiv3vC4/59mcFvLTtvPx4T4SuU089tbn44ou3W1mqzy22c8opp7R/iuWK866Zk2MAACAASURBVKDbDZXTyoz35uExVraK+sYVH+FxqN5qO7UJLOKkvogyanO3v6sloI+vVnuWrs3Y+stY6pueyXj00UdPbkvt9qX0TMf99tuvfWzHHnvs0fzN3/xNu5hO33MeY95k/H7aIE/pvroV2zfyOID6euExNh/hZ++9926is3bDYwpMd99992R0MibyxgpQ+XLAMarZ9/uNhMf1gmJ3FK8bHmeN4MXfL7300iZCcgTANCK4kTJTGI7/33333duVrcJunvAY5UfZd911VxvSuyOx6Xf33nvvdq+LkUsjjwMcCDZRRGARJ/VFlFEEx0YJzCmgj88J5WWtwNj6yxjq+/3vf7959atf3Vx77bXt9+2XvvSlvb39wQcfbL8n/uM//uPkdd/61rfa18eKqrFSa1pk55vf/Ga7EmusuBoh8pnPfOYojiDhcYBmXi88pltZYzRwnpHHaSFmWgjbSHjcyGjiRl6bAnD8f4w4Rtg79NBD29HXjW6nrzlmhcd4T4TyI488clL+Aw880N6Ceuedd05ub02vSyOzsd30uptuusltqwMcCzYxvMAiTuqLKGN4GVskML+APj6/lVcKj6vYB7785S83L3nJS5qf/dmfnYwoTqtnDILENKwXvehFzXvf+97mcY97XPPRj360Oe2009q3PPe5z20X0/nMZz7TfOc732liHuXpp5/eXnQYw4/wOEArz5rzmIayZ82JjF1ZbwQsjWB2bwmdNecxzVfMg9R68wRjPzYS+tItqyeffHI7Whp1SLeczhqxnIc/6h1Xero/+WhiPnKa73u8J/0t5oImq6h/vm/xN3Me52kNr1m0wCK+9C6ijEW7KY9ALqCP6w8bERhbfxlDfVMgfN3rXjeZIjWtT6SgGX/PF8759Kc/3Vx00UXNzTff3PzgBz9oRxpjNPOoo44aTXAME+FxI58mU14767bV9LZ8FHLaqNwQ4XHanMeNBMKNvjbdMprqmge7jcyd7COeNfLYDYX5Lb7d8JgvQhR/SwvzxK0IwuP2+tMueOQLKOW3DOdbSH3gLW95S/vr7nzdvnad93DsljltrsE8ZUy7wBEnmnQ7+bR+mS5qpLqmizL5/qUFs9JFmfxYyfc7ndjidfl7FnFSn3UBbCPtnQzy+kSdugsNdBfo6hqmRbZyi9hO6pNpm3H8x3E963X5Let9/TT9/cQTT1wzZzu/aNd3ISsvd9rxkj5n9txzz95FzfoWYZj3WPC6+QQWcRzNtydeVYPA2PrL2OpbQx9c5n0UHgdonc2Gxyi6uzjOtLmN+e/jvuqYQxkjkBu5bXXara+x7RTw8i+/84a+vi/o6QvXCSec0D5ctbsgT1+Z05piVniML33zjjxOC4jmPPbrdy94xKu6/WjWhYa8j6b+1bfdeQ/F7kj3tPKnhY+8nBTydt111zUP903BpxtI0nvz0fX4Xd5H87odcsghk/4fx0IsKpVG6Lsj5DFnOJ4xFT/5MbOIk/p6n2Ebbe9pn2v5fO9klG41j/d0F9aK/37rW9/a/MRP/MSaVZW7v4/wOM/r4nNivc+0aX2hGx7zCyHdxcxm9eu+v6dy40JCdxW/eY8Jr5stsIjjaPZeeEUtAmPrL2Orby39cFn3U3gcoGV2JDz2BbpZq63mIyLx71tuuaWd3/fwww/3LsiTV3HayqfdlVxnBYK0zWlflvL9ivmE+SM81ls9tq85ZoXHeM9m5jzmzm5bnT88pnCQRuVm9ZW+PpIHyhiZTBdDNnM49h1D6eJEbK9vleI8rMQ8hdiftMhTmgv79Kc/vfn2t7+93Yhp3z7m9elezMiPhfxhxLNWHU6+izipz/oMyz9zNtPeyTtdvHn3u9/dO6qbl5Mu6Oy0007NC17wgkmwivZ5whOe0Hzuc59r2ywdu7NeN094jItQsZ28z6wXHqNeuUcaWZx298c8n5d5H9nM8eA9/QKLOI7Yr47A2PrL2Oq7Oj11a2oiPA7gPuuL16yg1fd8xPWei5jf7pU/w3HaLVNRfn5bVHfbfaMr86622jeqlL5Qxe156Wr6PGVOa4pZ4THNX+yuthq/797ilt+6ltsZeZw/PG5mJKrbhn3zdzd7KPZ9IU/bjwAWP91bZvOyNnvbar6N7sWSfIR72jEyLUh0fRdxUh9y5HFafZNX/vii7khb/t4UCvMQny4KxLEebZqHx1mvmzc8XnDBBc255547WfF6Vnic9TimvJ9Ma/Mh5oZv9vgZy/sWcRyNxXIM9RxbfxlbfcfQh0vWUXgcQNdBNwCiTSylwDyLPE2b85hflMjDeYyQ9z12ZrMA3WCaHhsTt4DGCFDp8Ni90NIdaZwWpvouiqSLLPn8v0V8vsya87jevM3Ubuk1sy7ErBce+xaxCqf0+J8IlLEYVzxvK18IK8L6rNdNm/OY9jsvO5ZyT3d0RB9KI+N9bdYXHmM/8580Z3Ta3SHC42aP/vnft4jjaP698cplFxhbfxlbfZe9/y37/gmPA7SQg24ARJtYSoF5FnmadRtjVCyfsxurlKUv5jt6i17+uJXYVnc+ZMkFc6JeffPVuuGpLzx297vb+Pl7nvjEJzbbtm0r2j+mjTz2te2s9t6Rkce+8HjxxRc3Z599djtXNM33Pvjgg7cLj7NeN+/IY4xm7rzzzu280xjhjLC6Xnic9TimeUYeZ5kVbfyRbNx5eiQNPVA1x9ZfxlbfgbrJaDcjPA7Q9A66ARBtYikF+m6z687JnRUmomJpdCZuLbz99tvbL+U7sjjItHmz84yCdqE3e9tq3+3mKVDmCzjlI5Hx9wgl0+Zhpn3LTWOxqa0Kj7E/G23v9W7NTIsCbWTOY8znjtfH/NPoO+eff37L1B15nPW6jYTHuOU9Bbo99thjsuDXtFvo00I85jwu5cdYu1PO08vbNsu4Z2PrL2Or7zL2uZr2SXgcoLUcdAMg2sRSCgyx2mqqWFrBtPtIhs1UfJ4RxdjuPK/bTHhcLzBPW201Vkeetj/d0co8cMZqo1sZHjczx7VvFel8Uat5V1tNc0dj0a14f98za/PFrtZ73UbDY+o/8TiW9EiVbvtZbXUzR+/WvMd5emvcay11bP1lbPWttV8uy34LjwO0hINuAESbWEqBaaNI+ahb7Hj3OZ/xu3xBovjvNCp46KGHrlnAZqOL50ybh9n3rMfuIzT65lrOGx67c+JiBeH8Jw/F+QhomlM3a7/z5yJu9ZzH7mqhm2nv7nMeu+0zz3MeU3hMcwXToz36bm/NV5zue920OY+pn+ajmd1HyqTtbfY5j7HtWLQs2jVCcHdOpOc8lv/4c54ub7xKJYytv4ytvqvUV7eiLsLjAOoOugEQbYIAgV6BRXy+LKIMzUtgKwX08a3Ur6/ssfWXsdW3vh65XHssPA7QHtMWm0ibzp9dNkBxk03kV9+7z5abVk66PS4Wl4h5OjFiFFfDN7r6ZVoVsvuYj+6jMdIV/CHrvWzbyts3RiZiZO2uu+7qfY7dsu27/Vl+gUWc1BdRxvJL28NVFtDHV7l1h6/b2PrL2Oo7fI8Z1xaFxwHae6vCY77r8y713reMfr4S5oEHHjiXSGznrW99axPzsdLD1eON034/10YrfdG08BjViXlufgjsiMAiTuqLKGNHDLyXwI4K6OM7Kjiu94+tv4ytvuPqzcPXVngcwHSj4TGN2kXRaQGIeMxA/vs05yktGR+rVH7wgx9sR7TS3KEUGN/0pjc1r3nNa9p5NOl98e+YW5N+0pya7shjvCb+dv3117dz1F7xilc0X/jCF5qYPxT7lD8zL3+sQtrOTjvt1LzgBS+YrJwZI29PeMITms997nOTUJnPfUrzi/bbb7/JqpOxIEX8dJ8L2Lf/8bq0vdhWhN3Yh/QQ+HxOUtcpDC+66KK2nvG3Cy+8sDWb9gy7fN5Z1DeV8fd///eT+Xz333//xDm2s//++zfPeMYzmvh9/OzIiqIDdE2bWAGBRZzUF1HGCjSFKlQsoI9X3HhbsOtj6y9jq+8WdKmVKlJ4HKA5NxIe8+fCHXLIIZMAFc8xy28djYAUPyeccEL7mvvuu68NefmKgfH3tFx9fttqd1XBfOXGWI0wFqGYdttqLDXftx/dEbQUHiOQxRL6EaxiBDPdChv/HSOSEc4ipMW+xy2saQGT+F3UK34iqMZ+xQIksW/xk5a+j3CY7/+dd945+VtaFv+AAw5oy+++Lm7JjZC4++67t7fnnnjiie1IYOxDPLutW1Z3mf38WXxpFceoR95uqdy77757zSIwA3QrmyDQCizipL6IMjQnga0U0Me3Ur++ssfWX8ZW3/p65HLtsfA4QHt0w2N3Jb0oIo1uTXuA+Dvf+c7mDW94Q/sMs/zW0e4y+bGttDpl/qDs9eY85mXOCo9Rdpq3FyHplFNOaR/O3b2dNW0zXhuhLQXFCGXHHHPMJNR25zymWzxTeIxn2EWgW+/W2Xz/u8+Hm7a9rlM3jKawl5cbo4V50O2u6Jj/Lb9VtdSc1gG6pk2sgMAiTuqLKGMFmkIVKhbQxytuvC3Y9bH1l7HVdwu61EoVKTwO0JwbGXnMR8fSbaH56GF65EG6nTV2L0bo8oeqzxMeu0vKp+3NEx4jrKUQmB7qnd+yGvuU3/4ao6YRMK+++upm7733bvJQm267jdti008E6RQeU7264XHa/scjBOIn3ULaDY95OSm0d8NsHva64TG/VTben26zjWCZHhsQFsLjAAeOTcwlsIiT+iLKmKuyXkSgkIA+Xgh2RTc7tv4ytvquaLddWLWExwGoNxIep408pts60+5MG1HLRyKnjTx2bxXd6Mhjuv00glPMX+xb9KU7Ghi3rt5+++3tyGn8pEB87bXXNrfccstkDmW3Xn3hsTsCuJGRxzxkJ8vuYkLrhcc8IOZdo+8h7mn00sjjAAeRTUwVWMRJfRFlaGICWymgj2+lfn1lj62/jK2+9fXI5dpj4XGA9thIeJw257FvdCx2Lc15jH/H3MB8zl8e0vLbVvPwmEb+0vvnGXmM1+bzAvtWYO0G0hixS6ObsY994TE96DvmKK438piHx+7+zzvnMX+oeB6y4zbaaeGxO+cxXnfddde18zXD1MjjAAeLTWxYID5f/BAgQIDAYgW2bdu22AK3sDThcQvxKyxaeByg0TYSHqO4aaut5quSdm9b3W233Zq0KmlaOTUfUYvtplsuI2Sec845kxVUTz/99LbMNC+xu2BOWgDmjjvuaANShMW+R3rkVPnf86AWo5R9+5VWgj3uuOOaG264Yc2CPbEiaX77aFqJNa0Am+9/Cn+xuE6shvqc5zynefTRR3tXW03zTOcdeYx6p3Afq9qmW1b7PPIAOu2ZlwN0LZsgYMEcfYDAAAK+HA+AOKJNjK2/jK2+I+rKRaoqPA7AWvKgS7ep9t2OOcCuT91Emle5zM8p7FtMqKSJbRPYCoGSny+pPosoYyvslElAH9cHNiMwts/EsdV3M33Ce/6/gPA4QG8oedAtOjym8oIlPetxAKLBNpGP2sZG82c0DlaIDRFYIoGSny++WC9RQ9uVogKLOI6KVsDGFyowtv4ytvoutDOtYGHC4wCN6qAbANEmCBDoFVjE58siytC8BLZSQB/fSv36yh5bfxlbfevrkcu1x8LjAO3hoBsA0SYIEBAe9QEChQScpwvBruhmx9ZfxlbfFe22C6uW8DgAtYNuAESbIEBAeNQHCBQScJ4uBLuimx1bfxlbfVe02y6sWsLjANQOugEQbYIAAeFRHyBQSMB5uhDsim52bP1lbPVd0W67sGoJjwNQO+gGQLQJAgS2PDzGI3PikT/xaJ38Jy1Mlf5+1llnNfGInfSTP7omf9xN+ns8ViceMRSP2om/n3rqqe3jerrPkO1b5Tl/hFFsLz2qKN+/WEgrHt+THjXUtw/p9W9729ua7rNf429psbB4RFD85Psc/x37ccUVV0zKiN/ljxjqex6uLr08As7Ty9MWNezJ2PrL2OpbQx9c5n0UHgdoHQfdAIg2QYDA0oTHPBzmKz5HoIpwOSs8dsNhhML4ueyyyzYUHiOwXXfddZPg2RdeY/9OOeWUdvv7779/0328UGzjlltuWbN6dPfZr2m7Rx555OT93UCaQmy+wrPwWM9B6zxdT1stw56Orb+Mrb7L0Mdq3gfhcYDWc9ANgGgTBAgsZXiMnUojgkcfffSmwmMEsRgVjMf/3HnnnXONPE4b5cy3tcsuu7Rh9NJLL23iWbgR8K688sp2hDP9zBMe85HTvBHy36ft3HfffZPwLDzWc9A6T9fTVsuwp2PrL2Or7zL0sZr3QXgcoPUcdAMg2gQBAksZHvMQtyMjj3vvvXc7qjfvbasREi+88MLJqOO07hGhLn5i2xFyDz300O1uqV1v5HHnnXdujj322DZ85rfixjbzfbj22mubu+++u91+CsIPP/xwc/zxxzfnn3/+drfg6s7LJeA8vVztsex7M7b+Mrb6Lnv/W/b9Ex4HaCEH3QCINkGAwNKEx+6cx5gnGOFss3MeDz/88MltoxsJjymkxQhj30+6ZfXkk09uw1uEvRtvvLG9PXbekcf1wmN+e2sKjxFoI2wedNBBTYzECo91HLjO03W007Ls5dj6y9jquyz9rNb9EB4HaDkH3QCINkGAwNKEx+6cxrRj84bH7pzHfATv3nvvneu21XlGHmctzhP7Peu21Y2GxzRv87zzzmsuuOCC5txzzzXyWMGx6zxdQSMt0S6Orb+Mrb5L1NWq3BXhcYBmc9ANgGgTBAgsfXjMF8/Jb/GctSBOPjcwKjnPaqvTgmqa43jJJZe0cw/jJx9p7K7YOis8xvzIeec8xm2rqawo54EHHmgeeeQR4bGCY9d5uoJGWqJdHFt/GVt9l6irVbkrwuMAzeagGwDRJggQWPrwGDuYQlMsfpMWrIn5gnFrawTKvttSNzPymEYN+1ZbjVVR11u8J5/jOE94nHe11Tw8pvc8+OCDax7foRsvp4Dz9HK2y7Lu1dj6y9jqu6z9rpb9Eh4HaCkH3QCINkGAQBXhMQXIyy+/fLK/+bMX+24l3WeffdZ9BmP6+9VXX92khXXSxrvPeUzzL6fd1prKT2F2nvAYZc3znMc8PMZ7uo/z0IWXV8B5ennbZhn3bGz9ZWz1XcY+V9M+CY8DtJaDbgBEmyBAYMvDoyYgsKoCztOr2rJl6jW2/jK2+pbpNePZqvA4QFs76AZAtAkCBIRHfYBAIQHn6UKwK7rZsfWXsdV3RbvtwqolPA5A7aAbANEmCBAQHvUBAoUEnKcLwa7oZsfWX8ZW3xXttgurlvA4ALWDbgBEmyBAQHjUBwgUEnCeLgS7opsdW38ZW31XtNsurFrC4wDUDroBEG2CAAHhUR8gUEjAeboQ7Ipudmz9ZWz1XdFuu7BqCY8DUDvoBkC0CQIEhEd9gEAhAefpQrArutmx9Zex1XdFu+3CqiU8DkDtoBsA0SYIEBAe9QEChQScpwvBruhmx9ZfxlbfFe22C6uW8DgAtYNuAESbIEBAeNQHCBQScJ4uBLuimx1bfxlbfVe02y6sWpPwuLASFUSAAAECBAgQIECAAAECVQo8pmmabdu2baty5+00AQIECBAgQIAAAQIECJQXcNtqeWMlECBAgAABAgQIECBAoHoB4bH6JlQBAgQIECBAgAABAgQIlBcQHssbK4EAAQIECBAgQIAAAQLVCwiP1TehChAgQIAAAQIECBAgQKC8gPBY3lgJBAgQIECAAAECBAgQqF5AeKy+CVWAAAECBAgQIECAAAEC5QWEx/LGSiBAgAABAgQIECBAgED1AsJj9U2oAgQIECBAgAABAgQIECgvIDyWN1YCAQIECBAgQIAAAQIEqhcQHqtvQhUgQIAAAQIECBAgQIBAeQHhsbyxEggQIECAAAECBAgQIFC9gPBYfROqAAECBAgQIECAAAECBMoLCI/ljZVAgAABAgQIECBAgACB6gWEx+qbUAUIECBAgAABAgQIECBQXkB4LG+sBAIECBAgQIAAAQIECFQvIDxW34QqQIAAAQIECBAgQIAAgfICwmN5YyUQIECAAAECBAgQIECgegHhsfomVAECBAgQIECAAAECBAiUFxAeyxsrgQABAgQIECBAgAABAtULCI/VN6EKECBAgAABAgQIECBAoLyA8FjeWAkECBAgQIAAAQIECBCoXkB4rL4JVYAAAQIECBAgQIAAAQLlBYTH8sZKIECAAAECBAgQIECAQPUCwmP1TagCBAgQIECAAAECBAgQKC8gPJY3VgIBAgQIECBAgAABAgSqFxAeq29CFSBAgAABAgQIECBAgEB5AeGxvLESCBAgQIAAAQIECBAgUL2A8Fh9E6oAAQIECBAgQIAAAQIEygsIj+WNlUCAAAECBAgQIECAAIHqBYTH6ptQBQgQIECAAAECBAgQIFBeQHgsb6wEAgQIECBAgAABAgQIVC8gPFbfhCpAgAABAgQIECBAgACB8gLCY3ljJRAgQIAAAQIECBAgQKB6AeGx+iZUAQIECBAgQIAAAQIECJQXEB7LGyuBAAECBAgQIECAAAEC1QsIj9U3oQoQIECAAAECBAgQIECgvIDwWN5YCQQIECBAgAABAgQIEKheQHisvglVgAABAgQIECBAgAABAuUFhMfyxkogQIAAAQIECBAgQIBA9QLCY/VNqAIECBAgQIAAAQIECBAoLyA8ljdWAgECBAgQIECAAAECBKoXEB6rb0IVIECAAAECBAgQIECAQHkB4bG8sRIIECBAgAABAgQIECBQvYDwWH0TqgABAgQIECBAgAABAgTKCwiP5Y2VQIAAAQIECBAgQIAAgeoFhMfqm1AFCBAgQIAAAQIECBAgUF5AeCxvrAQCBAgQIECAAAECBAhULyA8Vt+EKkCAAAECBAgQIECAAIHyAsJjeWMlECBAgAABAgQIECBAoHoB4bH6JlQBAgQIECBAgAABAgQIlBcQHssbK4EAAQIECBAgQIAAAQLVCwiP1TehChAgQIAAAQIECBAgQKC8gPBY3lgJBAgQIECAAAECBAgQqF5AeKy+CVWAAAECBAgQIECAAAEC5QWEx/LGSiBAgAABAgQIECBAgED1AsJj9U2oAgQIECBAgAABAgQIECgvIDyWN1YCAQIECBAgQIAAAQIEqhcQHqtvQhUgQIAAAQIECBAgQIBAeQHhsbyxEggQIECAAAECBAgQIFC9gPBYfROqAAECBAgQIECAAAECBMoLCI/ljZVAgAABAgQIECBAgACB6gWEx+qbUAUIECBAgAABAgQIECBQXkB4LG+sBAIECBAgQIAAAQIECFQvIDxW34QqQIAAAQIECBAgQIAAgfICwmN5YyUQIECAAAECBAgQIECgegHhsfomVAECBAgQIECAAAECBAiUFxAeyxsrgQABAgQIECBAgAABAtULCI/VN6EKECBAgAABAgQIECBAoLyA8FjeWAkECBAgQIAAAQIECBCoXkB4rL4JVYAAAQIECBAgQIAAAQLlBYTH8sZKIECAAAECBAgQIECAQPUCwmP1TagCBAgQIECAAAECBAgQKC8gPJY3VgIBAgQIECBAgAABAgSqFxAeq29CFSBAgAABAgQIECBAgEB5AeGxvLESCBAgQIAAAQIECBAgUL2A8Fh9E6oAAQIECBAgQIAAAQIEygsIj+WNlUCAAAECBAgQIECAAIHqBYTH6ptQBQgQIECAAAECBAgQIFBeQHgsb6wEAgQIECBAgAABAgQIVC8gPFbfhCpAgAABAgQIECBAgACB8gLCY3ljJRAgQIAAAQIECBAgQKB6AeGx+iZUAQIECBAgQIAAAQIECJQXEB7LGyuBAAECBAgQIECAAAEC1QsIj9U3oQoQIECAAAECBAgQIECgvIDwWN5YCQQIECBAgAABAgQIEKheQHisvglVgAABAgQIECBAgAABAuUFhMfyxkogQIAAAQIECBAgQIBA9QLCY/VNqAIECBAgQIAAAQIECBAoLyA8ljdWAgECBAgQIECAAAECBKoXEB6rb0IVIECAAAECBAgQIECAQHkB4bG8sRIIECBAgAABAgQIECBQvYDwWH0TqgABAgQIECBAgAABAgTKCwiP5Y2VQIAAAQIECBAgQIAAgeoFhMfqm1AFCBAgQIAAAQIECBAgUF5AeCxvrAQCBAgQIECAAAECBAhULyA8Vt+EKkCAAAECBAgQIECAAIHyAsJjeWMlECBAgAABAgQIECBAoHoB4bH6JlQBAgQIECBAgAABAgQIlBcQHssbK4EAAQIECBAgQIAAAQLVCwiP1TehChAgQIAAAQIECBAgQKC8gPBY3lgJBAgQIECAAAECBAgQqF5AeKy+CVWAAAECBAgQIECAAAEC5QWEx/LGSiBAgAABAgQIECBAgED1AsJj9U2oAgQIECBAgAABAgQIECgvIDyWN1YCAQIECBAgQIAAAQIEqhcQHqtvQhUgQIAAAQIECBAgQIBAeQHhsbyxEggQIECAAAECBAgQIFC9gPBYfROqAAECBAgQIECAAAECBMoLCI/ljZVAgAABAgQIECBAgACB6gWEx+qbUAUIECBAgAABAgQIECBQXkB4LG+sBAIECBAgQIAAAQIECFQvIDxW34QqQIAAAQIECBAgQIAAgfICwmN5YyUQIECAAAECBAgQIECgegHhsfomVAECBAgQIECAAAECBAiUFxAeyxsrgQABAgQIECBAgAABAtULCI/VN6EKECBAgAABAgQIECBAoLyA8FjeWAkECBAgQIAAAQIECBCoXkB4rL4JVYAAAQIECBAgQIAAAQLlBYTH8sZKIECAAAECBAgQIECAQPUCwmP1TagCBAgQIECAAAECBAgQKC8gPJY3VgIBAgQIECBAgAABAgSqFxAeq29CFSBAgAABAgQIECBAgEB5AeGxvLESCBAgQIAAAQIECBAgUL2A8Fh9E6oAAQIECBAgQIAAAQIEygsIj+WNlUCAlIfriQAAIABJREFUAAECBAgQIECAAIHqBYTH6ptQBQgQIECAAAECBAgQIFBeQHgsb6wEAgQIECBAgAABAgQIVC8gPFbfhCpAgAABAgQIECBAgACB8gLCY3ljJRAgQIAAAQIECBAgQKB6AeGx+iZUAQIECBAgQIAAAQIECJQXEB7LGyuBAAECBAgQIECAAAEC1QsIj9U3oQoQIECAAAECBAgQIECgvIDwWN5YCQQIECBAgAABAgQIEKheQHisvglVgAABAgQIECBAgAABAuUFhMfyxkogQIAAAQIECBAgQIBA9QLCY/VNqAIECBAgQIAAAQIECBAoLyA8ljdWAgECBAgQIECAAAECBKoXEB6rb0IVIECAAAECBAgQIECAQHkB4bG8sRIIECBAgAABAgQIECBQvYDwWH0TqgABAgQIECBAgAABAgTKCwiP5Y2VQIAAAQIECBAgQIAAgeoFhMfqm1AFCBAgQIAAAQIECBAgUF5AeCxvrAQCBAgQIECAAAECBAhULyA8Vt+EKkCAAAECBAgQIECAAIHyAsJjeWMlECBAgAABAgQIECBAoHoB4bH6JlQBAgQIECBAgAABAgQIlBcQHssbK4EAAQIECBAgQIAAAQLVCwiP1TehChAgQIAAAQIECBAgQKC8gPBY3lgJBAgQIECAAAECBAgQqF5AeKy+CVWAAAECBAgQIECAAAEC5QWEx/LGSiBAgAABAgQIECBAgED1AsJj9U2oAgQIECBAgAABAgQIECgvIDyWN1YCAQIECBAgQIAAAQIEqhcQHqtvQhUgQIAAAQIECBAgQIBAeQHhsbyxEggQIECAAAECBAgQIFC9gPBYfROqAAECBAgQIECAAAECBMoLCI/ljZVAgAABAgQIECBAgACB6gWEx+qbUAUIECBAgAABAgQIECBQXkB4LG+sBAIECBAgQIAAAQIECFQvIDxW34QqQIAAAQIECBAgQIAAgfICwmN5YyUQIECAAAECBAgQIECgegHhsfomVAECBAgQIECAAAECBAiUFxAeyxsrgQABAgQIECBAgAABAtULCI/VN6EKECBAgAABAgQIECBAoLyA8FjeWAkECBAgQIAAAQIECBCoXkB4rL4JVYAAAQIECBAgQIAAAQLlBYTH8sZKIECAAAECBAgQIECAQPUCwmP1TagCBAgQIECAAAECBAgQKC8gPJY3VgIBAgQIECBAgAABAgSqFxAeq29CFSBAgAABAgQIECBAgEB5AeGxvLESCBAgQIAAAQIECBAgUL2A8Fh9E6oAAQIECBAgQIAAAQIEygsIj+WNlUCAAAECBAgQIECAAIHqBYTH6ptQBQgQIECAAAECBAgQIFBeQHgsb6wEAgQIECBAgAABAgQIVC8gPFbfhCpAgAABAgQIECBAgACB8gLCY3ljJRAgQIAAAQIECBAgQKB6AeGx+iZUAQIECBAgQIAAAQIECJQXEB7LGyuBAAECBAgQIECAAAEC1QsIj9U3oQoQIECAAAECBAgQIECgvIDwWN5YCQQIECBAgAABAgQIEKheQHisvglVgAABAgQIECBAgAABAuUFhMfyxkogQIAAAQIECBAgQIBA9QLCY/VNqAIECBAgQIAAAQIECBAoLyA8ljdWAgECBAgQIECAAAECBKoXEB6rb0IVIECAAAECBAgQIECAQHkB4bG8sRIIECBAgAABAgQIECBQvYDwWH0TqgABAgQIECBAgAABAgTKCwiP5Y2VQIAAAQIECBAgQIAAgeoFhMfqm1AFCBAgQIAAAQIECBAgUF5AeCxvrAQCBAgQIECAAAECBAhULyA8Vt+EKkCAAAECBAgQIECAAIHyAsJjeWMlECBAgAABAgQIECBAoHoB4bH6JlQBAgQIECBAgAABAgQIlBcQHssbK4EAAQIECBAgQIAAAQLVCwiP1TehChAgQIAAAQIECBAgQKC8gPBY3lgJBAgQIECAAAECBAgQqF5AeKy+CVWAAAECBAgQIECAAAEC5QWEx/LGSiBAgAABAgQIECBAgED1AsJj9U2oAgQIECBAgAABAgQIECgvIDyWN1YCAQIECBAgQIAAAQIEqhcQHqtvQhUgQIAAAQIECBAgQIBAeQHhsbyxEggQIECAAAECBAgQIFC9gPBYfROqAAECBAgQIECAAAECBMoLCI/ljZVAgAABAgQIECBAgACB6gWEx+qbUAUIECBAgAABAgQIECBQXkB4LG+sBAIECBAgQIAAAQIECFQvIDxW34QqQIAAAQIECBAgQIAAgfICwmN5YyUQIECAAAECBAgQIECgegHhsfomVAECBAgQIECAAAECBAiUFxAeyxsrgQABAgQIECBAgAABAtULCI/VN6EKECBAgAABAgQIECBAoLyA8FjeWAkECBAgQIAAAQIECBCoXkB4rL4JVYAAAQIECBAgQIAAAQLlBYTH8sZKIECAAAECBAgQIECAQPUCwmP1TagCBAgQIECAAAECBAgQKC8gPJY3VgIBAgQIECBAgAABAgSqFxAeq29CFSBAgAABAgQIECBAgEB5AeGxvLESCBAgQIAAAQIECBAgUL2A8Fh9E6oAAQIECBAgQIAAAQIEygsIj+WNlUCAAAECBAgQIECAAIHqBYTH6ptQBQgQIECAAAECBAgQIFBeQHgsb6wEAgQIECBAgAABAgQIVC8gPFbfhCpAgAABAgQIECBAgACB8gLCY3ljJRAgQIAAAQIECBAgQKB6AeGx+iZUAQIECBAgQIAAAQIECJQXEB7LGyuBAAECBAgQIECAAAEC1QsIj9U3oQoQIECAAAECBAgQIECgvIDwWN5YCQQIECBAgAABAgQIEKheQHisvglVgAABAgQIECBAgAABAuUFhMfyxkogQIAAAQIECBAgQIBA9QLCY/VNqAIECBAgQIAAAQIECBAoLyA8ljdWAgECBAgQIECAAAECBKoXEB6rb0IVIECAAAECBAgQIECAQHkB4bG8sRIIECBAgAABAgQIECBQvYDwWH0TqgABAgQIECBAgAABAgTKCwiP5Y2VQIAAAQIECBAgQIAAgeoFhMfqm1AFCBAgQIAAAQIECBAgUF5AeCxvrAQCBAgQIECAAAECBAhULyA8Vt+EKkCAAAECBAgQIECAAIHyAsJjeWMlECBAgAABAgQIECBAoHoB4bH6JlQBAgQIECBAgAABAgQIlBcQHssbK4EAAQIECBAgQIAAAQLVCwiP1TehChAgQIAAAQIECBAgQKC8gPBY3lgJBAgQIECAAAECBAgQqF5AeKy+CVWAAAECBAgQIECAAAEC5QWEx/LGSiBAgAABAgQIECBAgED1AsJj9U2oAgQIECBAgAABAgQIECgvIDyWN1YCAQIECBAgQIAAAQIEqhcQHqtvQhUgQIAAAQIECBAgQIBAeQHhsbyxEggQIECAAAECBAgQIFC9gPBYfROqAAECBAgQIECAAAECBMoLCI/ljZVAgAABAgQIECBAgACB6gWEx+qbUAUIECBAgAABAgQIECBQXkB4LG+sBAIECBAgQIAAAQIECFQvIDxW34QqQIAAAQIECBAgQIAAgfICwmN5YyUQIECAAAECBAgQIECgegHhsfomVAECBAgQIECAAAECBAiUFxAeyxsrgQABAgQIECBAgAABAtULCI/VN6EKECBAgAABAgQIECBAoLyA8FjeWAkECBAgQIAAAQIECBCoXkB4rL4JVYAAAQIECBAgQIAAAQLlBYTH8sZKIECAAAECBAgQIECAQPUCwmP1TagCBAgQIECAAAECBAgQKC8gPJY3VgIBAgQIECBAgAABAgSqFxAeq29CFSBAgAABAgQIECBAgEB5AeGxvLESCBAgQIAAAQIECBAgUL2A8Fh9E6oAAQIECBAgQIAAAQIEygsIj+WNlUCAAAECBAgQIECAAIHqBYTH6ptQBQgQIECAAAECBAgQIFBeQHgsb6wEAgQIECBAgAABAgQIVC8gPFbfhCpAgAABAgQIECBAgACB8gLCY3ljJRAgQIAAAQIECBAgQKB6AeGx+iZUAQIECBAgQIAAAQIECJQXEB7LGyuBAAECBAgQIECAAAEC1QsIj9U3oQoQIECAAAECBAgQIECgvIDwWN5YCQQIECBAgAABAgQIEKheQHisvglVgAABAgQIECBAgAABAuUFhMfyxkogQIAAAQIECBAgQIBA9QLCY/VNqAIECBAgQIAAAQIECBAoLyA8ljdWAgECBAgQIECAAAECBKoXEB6rb0IVIECAAAECBAgQIECAQHkB4bG8sRIIECBAgAABAgQIECBQvYDwWH0TqgABAgQIECBAgAABAgTKCwiP5Y2VQIAAAQIECBAgQIAAgeoFhMfqm1AFCBAgQIAAAQIECBAgUF5AeCxvrAQCBAgQIECAAAECBAhULyA8Vt+EKkCAAAECBAgQIECAAIHyAsJjeWMlECBAgAABAgQIECBAoHoB4bH6JlQBAgQIECBAgAABAgQIlBcQHssbK4EAAQIECBAgQIAAAQLVCwiP1TehChAgQIAAAQIECBAgQKC8gPBY3lgJBAgQIECAAAECBAgQqF5AeKy+CVWAAAECBAgQIECAAAEC5QWEx/LGSiBAgAABAgQIECBAgED1AsJj9U2oAgQIECBAgAABAgQIECgvIDyWN1YCAQIECBAgQIAAAQIEqhcQHqtvQhUgQIAAAQIECBAgQIBAeQHhsbyxEggQIECAAAECBAgQIFC9gPBYfROqAAECBAgQIECAAAECBMoLCI/ljZVAgAABAgQIECBAgACB6gWEx+qbUAUIECBAgAABAgQIECBQXkB4LG+sBAIECBAgQIAAAQIECFQvIDxW34QqQIAAAQIECBAgQIAAgfICwmN5YyUQIECAAAECBAgQIECgegHhsfomVAECBAgQIECAAAECBAiUFxAeyxsrgQABAgQIECBAgAABAtULCI/VN6EKECBAgAABAgQIECBAoLyA8FjeWAkECBAgQIAAAQIECBCoXkB4rL4JVYAAAQIECBAgQIAAAQLlBYTH8sZKIECAAAECBAgQIECAQPUCwmP1TagCBAgQIECAAAECBAgQKC8gPJY3VgIBAgQIECBAgAABAgSqFxAeq29CFSBAgAABAgQIECBAgEB5AeGxvLESCBAgQIAAAQIECBAgUL2A8Fh9E6oAAQIECBAgQIAAAQIEygsIj+WNlUCAAAECBAgQIECAAIHqBYTH6ptQBQgQIECAAAECBAgQIFBeQHgsb6wEAgQIECBAgAABAgQIVC8gPFbfhCpAgAABAgQIECBAgACB8gLCY3ljJRAgQIAAAQIECBAgQKB6AeGx+iZUAQIECBAgQIAAAQIECJQXEB7LGyuBAAECBAgQIECAAAEC1QsIj9U3oQoQIECAAAECBAgQIECgvIDwWN5YCQQIECBAgAABAgQIEKheQHisvglVgAABAgQIECBAgAABAuUFhMfyxkogQIAAAQIECBAgQIBA9QLCY/VNqAIECBAgQIAAAQIECBAoLyA8ljdWAgECBAgQIECAAAECBKoXEB6rb0IVIECAAAECBAgQIECAQHkB4bG8sRIIECBAgAABAgQIECBQvYDwWH0TqgABAgQIECBAgAABAgTKCwiP5Y2VQIAAAQIECBAgQIAAgeoFhMfqm1AFCBAgQIAAAQIECBAgUF5AeCxvrAQCBAgQIECAAAECBAhULyA8Vt+EKkCAAAECBAgQIECAAIHyAsJjeWMlECBAgAABAgQIECBAoHoB4bH6JlQBAgQIECBAgAABAgQIlBcQHssbK4EAAQIECBAgQIAAAQLVCwiP1TehChAgQIAAAQIECBAgQKC8gPBY3lgJBAgQIECAAAECBAgQqF5AeKy+CVWAAAECBAgQIECAAAEC5QWEx/LGSiBAgAABAgQIECBAgED1AsJj9U2oAgQIECBAgAABAgQIECgvIDyWN1YCAQIECBAgQIAAAQIEqhcQHqtvQhUgQIAAAQIECBAgQIBAeQHhsbyxEggQIECAAAECBAgQIFC9gPBYfROqAAECBAgQIECAAAECBMoLCI/ljZVAgAABAgQIECBAgACB6gWEx+qbUAUIECBAgAABAgQIECBQXkB4LG+sBAIECBAgQIAAAQIECFQvIDxW34QqQIAAAQIECBAgQIAAgfICwmN5YyUQIECAAAECBAgQIECgegHhsfomVAECBAgQIECAAAECBAiUFxAeyxsrgQABAgQIECBAgAABAtULCI/VN6EKECBAgAABAgQIECBAoLyA8FjeWAkECBAgQIAAAQIECBCoXkB4rL4JVYAAAQIECBAgQIAAAQLlBYTH8sZKIECAAAECBAgQIECAQPUCwmP1TagCBAgQIECAAAECBAgQKC8gPJY3VgIBAgQIECBAgAABAgSqFxAeq29CFSBAgAABAgQIECBAgEB5AeGxvLESCBAgQIAAAQIECBAgUL2A8Fh9E6oAAQIECBAgQIAAAQIEygsIj+WNlUCAAAECBAgQIECAAIHqBYTH6ptQBQgQIECAAAECBAgQIFBeQHgsb6wEAgQIECBAgAABAgQIVC8gPFbfhCpAgAABAgQIECBAgACB8gLCY3ljJRAgQIAAAQIECBAgQKB6AeGx+iZUAQIECBAgQIAAAQIECJQXEB7LGyuBAAECBAgQIECAAAEC1QsIj9U3oQoQIECAAAECBAgQIECgvIDwWN5YCQQIECBAgAABAgQIEKheQHisvglVgAABAgQIECBAgAABAuUFhMfyxkogQIAAAQIECBAgQIBA9QLCY/VNqAIECBAgQIAAAQIECBAoLyA8ljdWAgECBAgQIECAAAECBKoXEB6rb0IVIECAAAECBAgQIECAQHkB4bG8sRIIECBAgAABAgQIECBQvYDwWH0TqgABAgQIECBAgAABAgTKCwiP5Y2VQIAAAQIECBAgQIAAgeoFhMfqm1AFCBAgQIAAAQIECBAgUF5AeCxvrAQCBAgQIECAAAECBAhULyA8Vt+EKkCAAAECBAgQIECAAIHyAsJjeWMlECBAgAABAgQIECBAoHoB4bH6JlQBAgQIECBAgAABAgQIlBcQHssbK4EAAQIECBAgQIAAAQLVCwiP1TehChAgQIAAAQIECBAgQKC8gPBY3lgJBAgQIECAAAECBAgQqF5AeKy+CVWAAAECBAgQIECAAAEC5QWEx/LGSiBAgAABAgQIECBAgED1AsJj9U2oAgQIECBAgAABAgQIECgvIDyWN1YCAQIECBAgQIAAAQIEqhcQHqtvQhUgQIAAAQIECBAgQIBAeQHhsbyxEggQIECAAAECBAgQIFC9gPBYfROqAAECBAgQIECAAAECBMoLCI/ljZVAgAABAgQIECBAgACB6gWEx+qbUAUIECBAgAABAgQIECBQXkB4LG+sBAIECBAgQIAAAQIECFQvIDxW34QqQIAAAQIECBAgQIAAgfICwmN5YyUQIECAAAECBAgQIECgegHhsfomVAECBAgQIECAAAECBAiUFxAeyxsrgQABAgQIECBAgAABAtULCI/VN6EKECBAgAABAgQIECBAoLyA8FjeWAkECBAgQIAAAQIECBCoXkB4rL4JVYAAAQIECBAgQIAAAQLlBYTH8sZKIECAAAECBAgQIECAQPUCwmP1TagCBAgQIECAAAECBAgQKC8gPJY3VgIBAgQIECBAgAABAgSqFxAeq29CFSBAgAABAgQIECBAgEB5AeGxvLESCBAgQIAAAQIECBAgUL2A8Fh9E6oAAQIECBAgQIAAAQIEygsIj+WNlUCAAAECBAgQIECAAIHqBYTH6ptQBQgQIECAAAECBAgQIFBeQHgsb6wEAgQIECBAgAABAgQIVC8gPFbfhCpAgAABAgQIECBAgACB8gLCY3ljJRAgQIAAAQIECBAgQKB6AeGx+iZUAQIECBAgQIAAAQIECJQXEB7LGyuBAAECBAgQIECAAAEC1QsIj9U3oQoQIECAAAECBAgQIECgvIDwWN5YCQQIECBAgAABAgQIEKheQHisvglVgAABAgQIECBAgAABAuUFhMfyxkogQIAAAQIECBAgQIBA9QLCY/VNqAIECBAgQIAAAQIECBAoLyA8ljdWAgECBAgQIECAAAECBKoXEB6rb0IVIECAAAECBAgQIECAQHkB4bG8sRIIECBAgAABAgQIECBQvYDwWH0TqgABAgQIECBAgAABAgTKCwiP5Y2VQIAAAQIECBAgQIAAgeoFhMfqm1AFCBAgQIAAAQIECBAgUF5AeCxvrAQCBAgQIECAAAECBAhULyA8Vt+EKkCAAAECBAgQIECAAIHyAsJjeWMlECBAgAABAgQIECBAoHoB4bH6JlQBAgQIECBAgAABAgQIlBcQHssbK4EAAQIECBAgQIAAAQLVCwiP1TehChAgQIAAAQIECBAgQKC8gPBY3lgJBAgQIECAAAECBAgQqF5AeKy+CVWAAAECBAgQIECAAAEC5QWEx/LGSiBAgAABAgQIECBAgED1AsJj9U2oAgQIECBAgAABAgQIECgvIDyWN1YCAQIECBAgQIAAAQIEqhcQHqtvQhUgQIAAAQIECBAgQIBAeQHhsbyxEggQIECAAAECBAgQIFC9gPBYfROqAAECBAgQIECAAAECBMoLCI/ljZVAgAABAgQIECBAgACB6gWEx+qbUAUIECBAgAABAgQIECBQXkB4LG+sBAIECBAgQIAAAQIECFQvIDxW34QqQIAAAQIECBAgQIAAgfICwmN5YyUQIECAAAECBAgQIECgegHhsfomVAECBAgQIECAAAECBAiUFxAeyxsrgQABAgQIECBAgAABAtULCI/VN6EKECBAgAABAgQIECBAoLyA8FjeWAkECBAgQIAAAQIECBCoXkB4rL4JVYAAAQIECBAgQIAAAQLlBYTH8sZKIECAAAECBAgQIECAQPUCwmP1TagCBAgQIECAAAECBAgQKC8gPJY3VgIBAgQIECBAgAABAgSqFxAeq29CFSBAgAABAgQIECBAgEB5AeGxvLESCBAgQIAAAQIECBAgUL2A8Fh9E6oAAQIECBAgQIAAAQIEygsIj+WNlUCAAAECBAgQIECAAIHqBYTH6ptQBQgQIECAAAECBAgQIFBeQHgsb6wEAgQIECBAgAABAgQIVC8gPFbfhCpAgAABAgQIECBAgACB8gLCY3ljJRAgQIAAAQIECBAgQKB6AeGx+iZUAQIECBAgQIAAAQIECJQXEB7LGyuBAAECBAgQIECAAAEC1QsIj9U3oQoQIECAAAECBAgQIECgvIDwWN5YCQQIECBAgAABAgQIEKheQHisvglVgAABAgQIECBAgAABAuUFhMfyxkogQIAAAQIECBAgQIBA9QLCY/VNqAIECBAgQIAAAQIECBAoLyA8ljdWAgECBAgQIECAAAECBKoXEB6rb0IVIECAAAECBAgQIECAQHkB4bG8sRIIECBAgAABAgQIECBQvYDwWH0TqgABAgQIECBAgAABAgTKCwiP5Y2VQIAAAQIECBAgQIAAgeoFhMfqm1AFCBAgQIAAAQIECBAgUF5AeCxvrAQCBAgQIECAAAECBAhULyA8Vt+EKkCAAAECBAgQIECAAIHyAsJjeWMlECBAgAABAgQIECBAoHoB4bH6JlQBAgQIECBAgAABAgQIlBcQHssbK4EAAQIECBAgQIAAAQLVCwiP1TehChAgQIAAAQIECBAgQKC8gPBY3lgJBAgQIECAAAECBAgQqF5AeKy+CVWAAAECBAgQIECAAAEC5QWEx/LGSiBAgAABAgQIECBAgED1AsJj9U2oAgQIECBAgAABAgQIECgvIDyWN1YCAQIECBAgQIAAAQIEqhcQHqtvQhUgQIAAAQIECBAgQIBAeQHhsbyxEggQIECAAAECBAgQIFC9gPBYfROqAAECBAgQIECAAAECBMoLCI/ljZVAgAABAgQIECBAgACB6gWEx+qbUAUIECBAgAABAgQIECBQXkB4LG+sBAIECBAgQIAAAQIECFQvIDxW34QqQIAAAQIECBAgQIAAgfICwmN5YyUQIECAAAECBAgQIECgegHhsfomVAECBAgQIECAAAECBAiUFxAeyxsrgQABAgQIECBAgAABAtULCI/VN6EKECBAgAABAgQIECBAoLyA8FjeWAkECBAgQIAAAQIECBCoXkB4rL4JVYAAAQIECBAgQIAAAQLlBYTH8sZKIECAAAECBAgQIECAQPUCwmP1TagCBAgQIECAAAECBAgQKC8gPJY3VgIBAgQIECBAgAABAgSqFxAeq29CFSBAgAABAgQIECBAgEB5AeGxvLESCBAgQIAAAQIECBAgUL2A8Fh9E6oAAQIECBAgQIAAAQIEygsIj+WNlUCAAAECBAgQIECAAIHqBYTH6ptQBQgQIECAAAECBAgQIFBeQHgsb6wEAgQIECBAgAABAgQIVC8gPFbfhCpAgAABAgQIECBAgACB8gLCY3ljJRAgQIAAAQIECBAgQKB6AeGx+iZUAQIECBAgQIAAAQIECJQXEB7LGyuBAAECBAgQIECAAAEC1QsIj9U3oQoQIECAAAECBAgQIECgvIDwWN5YCQQIECBAgAABAgQIEKheQHisvglVgAABAgQIECBAgAABAuUFhMfyxkogQIAAAQIECBAgQIBA9QLCY/VNqAIECBAgQIAAAQIECBAoLyA8ljdWAgECBAgQIECAAAECBKoXEB6rb0IVIECAAAECBAgQIECAQHkB4bG8sRIIECBAgAABAgQIECBQvYDwWH0TqgABAgQIECBAgAABAgTKCwiP5Y2VQIAAAQIECBAgQIAAgeoFhMfqm1AFCBAgQIAAAQIECBAgUF5AeCxvrAQCBAgQIECAAAECBAhULyA8Vt+EKkCAAAECBAgQIECAAIHyAsJjeWMlECBAgAABAgQIECBAoHoB4bH6JlQBAgQIECBAgAABAgQIlBcQHsvT+Jj9AAAgAElEQVQbK4EAAQIECBAgQIAAAQLVCwiP1TehChAgQIAAAQIECBAgQKC8gPBY3lgJBAgQIECAAAECBAgQqF5AeKy+CVWAAAECBAgQIECAAAEC5QWEx/LGSiBAgAABAgQIECBAgED1AsJj9U2oAgQIECBAgAABAgQIECgvIDyWN1YCAQIECBAgQIAAAQIEqhcQHqtvQhUgQIAAAQIECBAgQIBAeYFJeCxflBIIECBAgAABAgQIECBAoGaBxzRNs23btm0118G+E5gIxBUR/VmHIECAAAECyyngPL2c7WKvCMwj4LbVeZS8pioBJ6WqmsvOEiBAgMDIBJynR9bgqrtSAsLjSjWnyoSAk5J+QIAAAQIEllfAeXp528aeEZglIDzOEvL36gSclKprMjtMgAABAiMScJ4eUWOr6soJCI8r16Qq5KSkDxAgQIAAgeUVcJ5e3raxZwRmCQiPs4T8vToBJ6XqmswOEyBAgMCIBJynR9TYqrpyAsLjyjWpCjkp6QMECBAgQGB5BZynl7dt7BmBWQLC4ywhf69OwEmpuiazwwQIECAwIgHn6RE1tqqunIDwuHJNqkJOSvoAAQIECBBYXgHn6eVtG3tGYJbAXOHxnnvuaY444ojmgAMOaC677LI123z729/e3HLLLc1VV13V7LLLLu3fHnrooebYY49trr/++slrTzrppDXvTdu87bbb1mxvn332aa655prmwAMPnLqt/A0f//jHmxe+8IWz6unvIxKY56T0qle9qrn88st7VVIfvP/++5sLL7ywiT527733Ni972cuau+66q/c90b/jtdHv43V9fXJan48Ndvv9iJpLVQkQIEBgZAJ95+n4PnnFFVes+Q4YLOncedZZZ7Xn1njd3Xffvd330b7XXXfdde05fK+99tpOOLaT/r7zzjtv9701vSH/nvmJT3yi/T7c93P44Ye334Uffvjh9jXd77fxnu534ZE1u+quiMCGwmMcCN2w1g2Pt956a/vl+dBDD11zYMeX9S996UuTgzgO8uOPP745//zzJ0ExTOPAPPPMMycfHimITvtCviLtoBoDCswTHvPios/FBYv8Akjqiyk85ieeaX1yVl+d1ucHrLpNESBAgACBpReYFh7j+18KYWlAYkfC48c+9rFm3333bS655JLJAEc6v0fAe/azn91+L03hsftds/uddNr3hRx82rk+1ePII49szjjjjKVvIztIYJrA3OExgt5uu+3W/Ou//uuaqzh5eIxCYuTloIMO6j0wIkDGT4xervdFum+bs8Jj3wioZh+nQM3hMQXQacfQOFtUrQkQIEBglQSmhce4k+2+++5r8oC1I+ExthffXY855pg1AxXp+2ga1JgWHrvfVXckPEb7+a66Sr14vHXZUHiMKyUR/OJATLev5gfCnXfe2Zx66qnNxRdfvOYgTbwxKnneeec1V155ZfurvpHH+H3+umkH9HibTM1nCdQcHmfVzd8JECBAgEDtAtPCY9yOGneu5Xeg7Wh4jFtdH3jggcmgRmwvvqsedthhzfvf//6ZI4833njj5Duv8Fh7z7P/QwhsKDzGLabxE6OAb3vb2yb3nqc5jzfddNNkjljf/eX5FZw999xzanjMX7fffvtNvQ893W7QV9YQOLZRp8Ayh8dp8yC6t+nUKW+vCRAgQIDAbIH1wmMMTsTIYAS+fA7hZuY8xvfTN73pTe1tqzENJW6FjQAYgTBCapqast6cx/z8vN6cx/heHIMsblud3f5eUbfAhsNjLGSTTzK+9tprJwvmlAyPs25brbsZ7P2QAsscHqeNtg9Zf9siQIAAAQLLLDArPObzA48++uh2AZrNhscIoBdccEG7jfgOG8E0gmP8dMNj97tmWscjDZjMO/I47UJxCpjL3Db2jcAsgU2FxzQvK25f3XvvvSfh0W2rs7j9fRECwuMilJVBgAABAgQ2JzArPMZW02I1Ebgi5O1IeIzBjRhtPPvssyfTq2IRyFnhMfYjX69j3vDYvVDcXTRyc2reRWA5BDYVHmPX09WYJz3pSc3jH//49taC+NmqBXOWg9NeLIOA8LgMrWAfCBAgQIBAv8A84TEFty9+8YvNf/3Xf02mS00LcPG9NF93I1+TIx6fkeY5fu1rX2vnMMZ25g2PMVASt6RuNjymQZeoU3dld32EQG0Cmw6PUdE4MLvLKntUR21dYPX2V3hcvTZVIwIECBBYHYF5w2P+fOT0qLhpj7zI50nG3Mbuyqbp+c5pO/OEx24g3Wx4zAdduo+yW51WVZOxCOxQeJx2JSX9/vrrr584dh+MOu2B6d1FcPq2lTdO2q7lj8fSZWfXc6vDY97v097GySr69rR5EPG6uDXnhBNOWHf0fnbtvYIAAQIECCy3wLzhMWqRFqnJnzM+z/fM7vfCPCzGQot94XHa+TtWbM33pU93n332aZ8Zvd6CkKku5j4ud/+0d+sLzBUeIRKoSWCj4bGmutlXAgQIECBQu4DzdO0taP/HLCA8jrn1V7TuTkor2rCqRYAAAQIrIeA8vRLNqBIjFRAeR9rwq1xtJ6VVbl11I0CAAIHaBZyna29B+z9mAeFxzK2/onV3UlrRhlUtAgQIEFgJAefplWhGlRipgPA40oZf5Wo7Ka1y66obAQIECNQu4Dxdewva/zELCI9jbv0VrbuT0oo2rGoRIECAwEoIOE+vRDOqxEgFhMeRNvwqV9tJaZVbV90IECBAoHYB5+naW9D+j1lAeBxz669o3Z2UVrRhVYsAAQIEVkLAeXolmlElRiogPI604Ve52k5Ka1v31ltvbV72spc1T3va05qrrrqq2WWXXVa5+RdWt3vuuac54ogjmgcffLB9MPTNN9/cnHnmmc3hhx/OeWGtoCACyyHw/e9/vznxxBObn/qpn2ri4fRxHrrvvvuaF7/4xc2LXvSi5qSTTlqOHV2SvXCeXpKGsBsENiEgPG4CzVuWW8BJSXhcRA8VHhehrAwC9Qh88IMfbF772te2YfEXf/EXm7/8y79svvGNbzRXX31188xnPrOeiixgT52nF4CsCAKFBITHQrA2u3UCTkpN+4XliiuuaD7zmc+0/37kkUfaBtltt92a/fbbr/nd3/3d5rjjjmt+8id/cusaqvKSu+Hx85//fPOHf/iHRh4rb1e7T2CzAv/7v//bvOtd72re8573NF//+teb5zznOc0b3vCG5tBDD93sJlf2fc7TK9u0KjYCAeFxBI08tiqO+aQUX14uuuii5m1ve1vzgx/8oA2KP/dzP9fcdNNNbXB86lOf2nzxi19svvnNbzZPecpT2tf9/u///ti6yCD1/e53v9u8/OUvb+66667mQx/6UPPv//7vzUte8pLmpS99aXPZZZcNUoaNECBAYBUFxnyeXsX2VKdxCQiP42rvUdR2rCelbdu2tcHxj//4j5t99923/fev/dqvNTEils953GmnnZoPf/jD7eseffTR5n3ve1/zO7/zO82Xv/zlNvxEyPzIRz7S/n/+k+bvxO/i/f/xH//RbjeuqnfDUhqVi9d+/OMfb/baa68m/W6PPfaYzAmMsPvmN7+5vVL/K7/yK+3v3/3ud7dzByPYnnHGGWv2Ic3f7Jb5qle9qrnxxhvbuYcHHnjg5D2x/fjb+9///nbOUdrPsIpA/ed//uftXMWHHnpou2Ojr/z8RbGN2OYdd9zRXHfddc23vvWtNji+8pWvnOx3lH355Zeve9yFzwtf+MLJa6JNrrzyyiZugbvzzjubH/qhH2qe9axnNX/wB3/QHHXUUe1/5z8xvyq8pv2kenziE59o52iu9/PsZz+7ba977723bdsIxvlP9Il4zTnnnNP88i//8pq/xX5/7GMfa62/8pWvtPv5S7/0S83pp5/eHHbYYe0csPQT+xwj49H3wi/aPP4/+m3sY7wnjYqn/Q6Dd77znc1BBx3Ubib9Pm/XmH/6+te/vvnoRz/a3jqY2jv1vdtuu623+qne0U/Tz0brE23Qbctp+zmtH8fro18ef/zxzQ//8A9v15+jHpdeemlz/fXXtyNbsb/Pe97zmrPPPru9SDTPz0b7ZBwbxx57bFvmtJ999tlnu3396le/2s79+8IXvtBerIrPnbiYFcdI1O/Hf/zHJ204T59MbRP9JI6pT33qU+1nys///M+3x89ZZ501aJ+Ji29Rxnvf+972MyJdjDvllFPaeYz5cZiOwW77x2dEfM7G/8yFXtvKYz1Pz3OMeg2BZRcQHpe9hezfhgXGelJKX0gDLL7AR3CMn2kL5nzgAx9o4otQ3FoVoeuxj31sG3wihMUcnd/+7d9eYx9fpOJL38knn9x+GVrvC/C84fGv//qvm1e84hXNAQcc0PzGb/xGu+247Wuo8Ji2/8ADD6wJj/ElL+r+3//9381v/uZvNk984hMndY0v5TfccENveO12xgsvvLAdyQ3vhx9+uDnyyCOb173udZMwGF/U/+Iv/qK17N4iHF+qI9jnXzgjtMV+xVypWODoV3/1V5tYiCNuP7777rubU089td2vH/3RH10TxP7sz/6sef7zn9/svPPOU+sR5cUIafpJ5cc+77777u2v4/2nnXZae6tzhMef+ZmfaQNg/MSX56997WttMHzSk560Zh5XhLaodzjsvffebVvGT+z3d77zneaNb3xjGwhTgIwv2xEAIgj+1V/9VTs/7MlPfnIbNCLgRZtEoIxgEL+L7X76059ufuEXfmFy4aEvPEZYjGAbYfWQQw5pA3f8pP4YfTyfe/Y///M/zd/+7d82T3jCEyYXOeL1m6nPEOExAmssuhLt1A1k4fDqV7+67W/hFvWICzrhEu0XF2AOPvjgmZ+XG+2TKTxGgJrWj//zP/9zTXiM8B79KH6e+9znNrvuumtr+tnPfrZti/jbn/zJnzQRMOftk7EQTQTY6Gff/va324tE0R/+5V/+pf0sesYzntH2kyH6TFx0is+4uFgRoTfqEP//uc99rr3I0T0Op4XHOFaOOeaY5p//+Z+Fx07PHOt5euYB6gUEKhAQHitoJLu4MYGxnpTe8Y53tHPuYpTg/7V31rF2Fe0aXxfXDwm0uEuxAsHdoUgpGooFJw0EhyChpClQ5CsaQvB/cU2BFEghFJqgwRPc3SnBCTe/4b7nzp7O2mutvY7M3uuZpGl7zpKZ5529Z555XkHVmWuuudqSR9wsUbK++eYbRwQgKvyNKyYbfcsYyEM4QYfUTJkyxV2zzTbb1CaP8847r9sMQ1RQMlEkabYRq6s8slmF7ELEaKZQ/fLLL30k+aqrrnIqgt/avb/aTMyc6hlTRHmOKUBGHiGJZ555plNDwRpiijpDM1KJKgUu3GuN6yBSpvDaz4vGEb7fH1vewYCvpJx33nlug+3bbMyYMdk111yTLbPMMu7nKE7E1vK3Kdz+9SiZKM9cw+cW8oSCxDMgY4zNCCdKLEo0pHL06NGzKI/YG8LLJh/l1rDjfR988EG23377ZQcccECLmh075KgznrrKI5+Dk046yX0mffJoBO6xxx5zuPDHDhCMqEGkwGippZZqO02rzEkeZO+GNIXKvs1jf46bhwKHBiGhffvtt933C4c2t912m3Od91u7OcnhCUQMNdyfM77HBfOP7z6zfadzBgWd76ZVV13Vqdfrrruu6yZz7Nhjj82mTp3a8jmMkUcIKN/HKMU0KY+t07Kp63TVNUTXC4EUERB5TNEq6lMtBJq6KNnG66KLLnIbcGt5yqPvjmabXogcZIrNl0/ojGiyMbVyH3WVR1wy2eyzmRw/fnxff/uLPLLpY5MJaYAkGnlkc4vaBllDFURF81sR6aoyOats1F9++WXnNrzwwgs7go6C5zdUGzbPRhIWW2wx92ve8cILLwwKeeR9oeJnZAGCZgcLfr9NsWbzjKrMoYZhjNJtP7N7bA7iFsgmfvnll3e/svdAqrAtiiUurmZXroV48WxcI/1mcxVVz3eFjpHHOuOpQx7N7Rn1F3IFSTKyZhiiAvMzlDxrkCfGBGkCl3Ds4XytMie5typ5RLXnEAR1lEMA3125zLNQpGM48qwTTjjBHfyEc4ZDBw6KUPL9OdjJnLFn4bUQw9Pc+/l8mi1i5JH7IZocdECuVSpJ5LHK2qFrhUDKCIg8pmwd9a0jBJpKHtlATp482bl1sZkpIo+W8GXatGnOdYzEORAqTtxxD0O9YeNDYzOHogkxRRWj1SGPuINdcMEFzg0sTGPfH+TRVApcIYkJGzt2bB/JmDlzplO6cJmLKSlDRR4feOABRx4h72yg/U03eJu9cKtFUSFOz+IuccvFDRniaa1oHJ0oj7iuQgwsKRNzjvkDqcX1OOwDfTHVD9JIbCgKs/UN1Qz1229WL8/cp7fffvu+X+Oeyx9z3eVgAPKIwoPL8xxzzOH6MGzYsJZnMs/oI/PXf1+MPNYZTx3yCCYQpKuvvtod0PhKH26/EydOdP33D4ZskBBnVFU+m3y22rWBJo/+uyGLqOaMhc8brreQLw4+8lTMGHm0OQEusTnDO1GpiXdlflAuw1rVOfPmm2+67wsOL2KHS7HPYUgejSTjFo1NONQQeRR57GhDo5uEQIIIiDwmaBR1qR4CTSWPEAo2hhbDaOpEnvJoJ+jEgfkuZEYUUWnYFP355599sVb+dfbcMKmKbz0/EUmYtITYJJJR4ALrt7rkkcQ7bLAhY2w2UR98hYp32Ttwc4PEouZZAowi0lVldlbZqLNp5vo8ghAjVbZJxQUYLOebb75+JY9+zCMPtvgykuXwPlRbUyKJWyQOLSS9f/31V/bkk086Nc0Ig8U8mrt0iGkesYW8ci8kIWzE++Eay4FB2Ogj8zmM5Y2Rx07H0y5pEf3xE/uEBy8WG0dsHTGbxGr65NHwQL3143NtnN9//3328MMPu5hH8wzIm6dV5iTPKKMWhq7ZxPjxGUQttzJBuBPzmefwhlaFPFofeB7JvYh/DNvnn3/uDid8nLmm6pwx25CwiNhb/g5bGK8ckkfzesDjAW8NP2HZQgstVOUrpGevbeo63bMG1cAahYDIY6PM3YzBNnVRMrc3Eo74CUpi5JF4HDa7qByWvMJiJMOsqrhxoYaRoMN3F7PnhgSDWRZLRGIbdVQhXOtQryCuluTCZmdd8shz2KzxDnC49957ZyGPJLeBgEAmbHMbfjqKsq2W+TRV2aiXJY8QMSNdpuqxyfXVZp8g542jjPKYdzCAGoiiQyxYmSyu9MeP4bNsqzECwbWxvqGyEtcLuUZxJEEKRAEVmeRQuChDYIkx8906eR6qFIcrKOwWv8bP25HHIvuG4+Hz5CcfsvtjpMYnjxAMYoxRR+kfZAOVP0Yei/pUJq6uypzshDwaEQZbsqCSvAi7MC4OosKx+WPKm5NlMr7ac8KsylXnTJlDMXuXKc0+eWReonJziAGJ5JBO5HHWmdvUdbroM6zfC4FuQEDksRuspD5WQqDJixIZEVEtcBXDBRKXKdys2LDhNsVm5vXXX3furWSZJHsisVJ+iQLAxh0RBQPXVTZuZBck+YVf6qGO2yrPZrNMplU2/jzbTuTrkEeUJ9wWIT387StjoSLBOFEncSmD7FpWyCrZVosmZpWNepHbKklUIMTvv/9+n9uquVhOmjTJbVj9VqSgliGPYUkUDh2w3YQJE1z5EMgf7oi8e/fdd4+628YwystOybWW0MhIsrmtTp8+3RFFapUyL8nk6ivKzG0IHO6rfqIdU2whcRBIixXNI4+GaX+NJ5YV1v/sQISJjcNdHPfbmNJnbqt5LptF8zAkaGWTOHVCHq2vKKjnn39+v8Q8mg39g5MyY+5kzpjbKgpvzA273XzGzRXSj534nKDQ53l+lOl/L1/T5HW6l+2qsTUDAZHHZti5UaNs+qIUcxkLJwBEjcQTbPDCEhJcaxtoYn9wN+SZfgIdrqlLHnG1RHFhk0WsF4lzaHXII/2FQEIe7HmxzTvvMaLNv/2skEWkq8qHqQp5LJswh0QdVoeTzTkb1VBRK8KR33dCHrnPYr44hIA8oigRR4iKHM6RPKwM4zCrL9dbwpwFF1ywb5xWwoJss5a1NbQr2T2xORk9fUXTnhdTZ2PKoyWH6mQ8VWMecfNF+ebwwmI1Y+QxdCUPXYMHak52Qh7bzStzlUeBrOK26s9nYjot7rrduDudM4Y/h0h8rjgkKWo2nyHOHFCY1wN2EnmMo9f0dbpoTun3QiBlBEQeU7aO+tYRAlqU/oWNpDGoM5AksjVSFgE1hSyIxEaFrn0+2Fb2ABdWNnqoI1aWwa6rSx4hsPYMTvmtzECn5JH7iU8ihtKP+4qRR9w9IRpsZsPSF0NFHsuW6sAOKFTmXoxdw9IUA0keiXtE1caNlBhY3POsEHpYYoRrILoogmQKReXGzdkwHjFihHN/tZqifqkO393WSieQwAmFkTIVMbvGruNggv75CaBsDsfIo1+OpOp4qpJHPmeMBddVS+QTI49GjFF5cfc+8MAD+xQ9wwzVC/Xy3HPPbfu9WeVAoxPyaMojCjC2tZIi1IJE/cduYQ1L63A74mnzjsMsXLz9WGl7Ni77uC/jJlpnzlgNXFxueRdz1hpxl4wD93t+R7y0zWdUbcqP+NmSRR5FHjvayOgmIZAwAiKPCRtHXesMAZHHVtw63bygalHLD2IXK8HQH+SRjTqJNSAKRhZsI8bGDXLhN0sMQuIN3EyJ1yR5hm066SskgQLx1kKS4ZM0SJBfF64M6aoyK6tu1K2eI7UpcTOm9ib95RCAwwDcG8GH/0OWSRASw4k+mvstv4f8487stzLKYxjPGiv0TqwsP4csoIJiMw4oUJZfeeWVjBg41G1cpY0gmY3XWmst52KNKggJtiLsZA612EUjTpR28W0bI49GvCjZQL1MyBa1SYlxHTVqlFNH/WaxufyM5EmUgqC2X6fjqUoeca/GFdcIcTuyNmPGDJf0h4MP4o9HjhzpvAL4ObYGQ2pg8tlo18rOSfDCBtiPsihrrrlmX7bccB75brDPPPOMc5OnT8wD+opdqFHJQYMdFMWwajcneSeEkGzS2JPEWBA1f07avCFJE4dDVeeMqdq4Z/O9RFIo5i5ElcM2XFqZWzS+G8nqynpj85mkQL4XBdd1+v1b5XumG6/VOt2NVlOfhcC/CIg8djATzPWGxbHIhYbNMa5WbGRQgFhESdiwxx57OJe90GWQzTEnyyysPJ9YNJIgsEituOKKHfS2ebdoUWq1eaebl6L7+oM80lNLsIESCUll7hdlruQ+P5OrbTpRivj8WPIfrgtJhhVVX3LJJZ1bGsqB34ZKebQ+oCRBkiCHbH7JAovrHOQP8sX/rY9lP92xeM8y5DGWMIe+QA6oq2fF2OlH2G/cMSEykFfeDxm2Zv0HfxI9sWnn+y72bItl5J2+bfPckamvRywt37MoUnxfl2mhGtbJeKqSR/oVum+2y25KvCsJYMis+s4772SQFUgdiXoYc8wFPRx7WfLIAQyYU7YH25GVmHI+ZZ4HaSculkMOxoNdUUvpI14QEDvIV+jNUEQeeTfPZv4Qz4hyzPcGz0dt5PPBnOx0zkBIzWuBLK2QVVzamUOMg/WYGG3mM94b5j5s8zmWsKjoe7TM3OzFa7RO96JVNaamICDy2IGlWShQSThZZ1ENizbbIyGObHZYIFnkUUr4207XSfbASbG5D3KiTBwaZNNObHFNe/zxxzM2un5cVgfdbswtWpT6x9RWlJ7kOWVijPrnreWewibzhRdecEQzTPZT7gndfVVRtlIbnbllUoORDXUqrV3CnP7qY5Wxl8Wzv/qm5wiBpiOgdbrpM0Dj72YERB4rWs9iwYgDY9M6depUp5b4haztkaaoULgbkmgKhx/XQ+Hn8ePHu1vMTZCYDQpxW905U0pQK/1SCRW73pjLtSjVNzVzFMJI5kCSoMRq59V/S+dPEHn8r3O3zSt1IfL4/2U4yhBnkcfOP4u6Uwh0goDW6U5Q0z1CIA0ERB4r2gGXG9y1cOehGDv/xgWHzUeYAQ/3IhJbxFxbLbMi8TW4ycw222zONZWkALisEcthzVL0Q1ybqrRUMZMWpSpotV7L4QR1F3HR+uKLL5xqzhxOrYk8ijwWzUkpj0UI6fdCYOgQ0Do9dNjrzUKgLgIijxUQxA0VFz4ysUHwiLkijmPmzJlRdYaAe8gm5DFUJq24N+qlnxky1h2rOzV8+PBZ6pRV6H5jLtWi1LmpSYyB6zSNGDtKeVi2xM6fqjuFQCsCg+G2KsyFgBBIFwGt0+naRj0TAkUIiDwWIeT9PlZ/zFxNixLnhK8hGQbqCcW1yc4Wq9tFwD5xXaQ+J+j+kksucdn21NojoEVJM0QICAEhIASEQLoIaJ1O1zbqmRAoQkDksQgh7/fUdILw+XGKllRk7bXXzk2cE76CLHmkZ//oo49mKStg11omQf5PspxJkyY599g6xaErDLWrL9Wi1NXmU+eFgBAQAkKgxxHQOt3jBtbwehoBkceS5iWBCPGN1Hjya97Zz6dNmxYtQh0+3uq4kVEVRZFyHTFCiGss7yLdPfWxqOdFAhOS68iNUMpjyWmry4SAEBACQkAIJIeAyGNyJlGHhEBpBEQeS0JlCiP1pMIYRdxOKS5NrFi7bKgkwzn++OOz5557ztWx408ZImhKJXXQeL4V2i7Z9cZdpkWpcSbXgIWAEBACQqCLENA63UXGUleFQICAyGPJKYFKiLtquzZixAhXdByCGTZKepx++ukZmVNJQgKJrOKCitqJ2yrqI/GVavkIaFHS7BACQkAICAEhkC4CWqfTtY16JgSKEBB5LEIoy7JPP/00O+iggzIypI4aNSqbZ555ZrmLmo7Tp09viYfkIjK0UvoAwjj//PO7pDf77LNPJeLIc55++mmXXGfnnXdOqth3CfgG/RItSoMOuV4oBISAEBACQqA0AlqnS0OlC4VAcgiIPJYwiWVGHTt2bK5bqtV/XHPNNV3Zjkv8LqwAABSjSURBVKWXXto9+fbbb89OPvnkbJlllnH3brzxxtE34tJ64oknZnPNNZcrBbLYYou1XGeuseedd56rvaeWj4AWJc2OwUCAeGfc2eeYY45s2223dZ9dNSEgBISAEChGQOt0MUa6QgikioDIY4Fl/vjjD+diettttznF75BDDone8d1332WHHnpo9uSTT/Zd99RTT7laeRDBG264IVtjjTVy38ZGlDIc999//yyJdEicc9xxx2U//fSTy+i62WabpTqfkuiXFqUkzNAznfj++++d98CUKVOyF198Mfvxxx9bxsZnM6/cTs+AkOhASFRG7DjfrxYugC3uvvvu7NZbb82WWGKJRHvem92y+p3jxo3LzjnnnGzfffd1Mf7YA48bNSFgCGid1lwQAt2LgMhjge3YLB588MHZsGHDWhTF2G22cB544IHZtddem51xxhnZTTfdlC277LLZ8OHDo29ad911syuuuCJbcMEFs2effdYRVRLjrL/++tnIkSOdy+zjjz+ezTvvvB3FSnbv1Oy851qUOsdOd7Yi8PLLL7vyPNRZDRvEZJNNNskuuOCCjFI9aoOPgB3a/fDDD86t/+uvv3YJzSAtF198ceXwgMEfQW+9UeSxt+w5kKPROj2Q6OrZQmBgERB5LMDXFkOS3fDvds2IJtdcfvnlTkHk1LVd22uvvVqyt3788cfZVVdd5RRIsqyyQd1uu+1copzNN998YGdDjzxdi1KPGHKIh2HeAJTVwfX88MMPzz0EGuKuNvr1r732WnbuuedmTzzxhDtkg0QSY/6f//yn0bgMxeB98ohN9t9/f3fwIuVxKKyR9ju1TqdtH/VOCLRDQORR86PnENCi1HMmHZIBWXke3FJxjaySHXlIOqyXCoEhRuCOO+7IDjjgAJdZnPj8I444InvppZcUbjHEdknx9VqnU7SK+iQEyiEg8lgOJ13VRQhoUeoiYw1AV1HvLdbKf/xCCy3k4uJQEUePHl1IBq+77rps8uTJGWVyeCYJr8iqPPvss2dbbrmle84OO+wwy3PYLKPA4IaO98ACCyyQkUiLeOkjjzzSZV22hkvso48+Gt1cm4pz6aWXOhd4Wuz6Bx54wClvv/zyS8tzUE5vueWWjIRfb7zxhus34ycOm1qx/N+avSs0xyqrrJLtvvvuTslbfPHFW379/vvvO5f7hx9+2I0T9/xddtnFxbqtuOKK7lqzBQnErD7u77//nl144YXZjTfemG266aYtnheGHZmruZf377rrrtkpp5zS98y851rnSD5GqAG2Kqt4/f333xnEhz7hQcL/sRkeH2TaNqwMp/C5ZNUmkRl/Qm8S+hUbFzGAZ511VrbIIotk99xzj5uz7dpGG23kxgPO9I8kbYRFEFuf11+eh/JHPP67777rErYxzuWXX77lVR9++KGbE8xZ/z12EbYgFOO+++5zYRUxW3OtZQUHN2xG/eNnnnmmr98D8HHXI7sUAa3TXWo4dVsIZJnb9/zPvxUl/hEgQqAnENCi1BNm7HgQRlh+/fXXbOutt3bZUGlvvvlmRvIpXBtvvvnmbLfddmv7DtzOH3zwQZdJ9frrr89WW201t/n++eefs8ceeyzj+agrbJJNlbTsyjx4xx13zBZddNGMuDxUTPoF4aRcj2VmrUseP/vsM0dKSeoDkSXp1qqrrpp98sknjvjg/r7OOutkW2yxRUbyL1w733vvPZfZGVI699xzOwyMFOFmuOSSS7qfMc4ZM2Y4sgAZAwMjvpYMjPdYfPZbb73liAqZpSFhEOwYeXzooYeyo446Kttggw0ctii72MRKGoErrvrLLbdcBhEMn9mOPLKOQcgYG60MeYTMoixfffXVjhRts802zj4xrPLII0QVd1lcaEPyaHOCcUGWIcRcD7ZgxLiZI9QItgaJY6769sANl/nDYQQklXq//Jt5xt8Qt1dffXUW2xp55B00bBMSVXDCLRubh+TRYvGff/55FzqBvS0Wn7litubZlLOChHKYseeee7rDBZLI2cFBxx9q3dhzCGid7jmTakANQkDksUHGbspQtSg1xdLxccYIi11JGRxI1X777efIULvyGhA71EdaSLYgNccee6xT3IyIWj3Yr776qmVDzf1vv/12dthhhznCSebm1Vdf3T23LnlEVUSVJNsoaioNknjmmWdmV155pRsriWOM9BmpJI4TgsX7ffIYki3GQr8hJSiw22+/vSM6KFkodCiIuCbaZ+6yyy5zxGbvvfd22H377beOqJjyCEkkKRhE0y9phDoFeaFxHwSO5tfJJVs1411qqaWipJTrUSzpDypbWfJopZgg32RqhfzSsC3P4m/mDTV2Y+QR8nnqqac6ZY7mk0fGiXKJCkwcPCoqzSeskN2LLrqoZTLb3IuRX5RDMOSQgAzgJF2jYRfm5NSpU1tsa+QR0vrll186sunH74Mx8wQlk/mJamwKJ5mFsQuHJRBs/tiBg5Fi3y7N/ubR6KsgoHW6Clq6VgikhYDIY1r2UG/6AQEtSv0AYhc/oh15tI00alyRGmIbeNRLn+gYNGH9V5QqSBvqTFi6wzbhkDC/3E4d8ohbJRt7yCLPROWkkSEWpXDhhRd2hG+llVZqsabFctqmn1JCeYoaN4ZEBjdVVDaIEKqTkQmu/eabb5xr7l9//eXcfFF9ffKI+yzEE0I6fvz4vn5BgHER9l107ZdWLgkXTUgc747Z2BIcocaCBQSoSHnE1ffoo4926hguvhBEv4EfSjFKKQQxhhNKKqQN8o4Lsj+3IMLgh9vv+eef3+LijBIOViuvvLJLkob7qrU88sgYuYd3xkpHWdI2bG5zwuY8ai52QR30y5gYwd1www3dgQDNyKPVL0Zx9+cY10A6sRuHMO3KWHXxV4m6PoAIaJ0eQHD1aCEwwAiIPA4wwHr84COgRWnwMU/pjXnkkc0uhObss892BKSoNqNt4FFlcBEMG5v/sWPHOpfLO++806lr1iCLqHyQReLdcP1jYw5R6w/yCPFFXUO1wnXWFETeTwwk5BHFC/ISJvqhrAXkDXdUCDBuinnkkTFA9sDU+m3XoqThstuu+bYAQ8qa4F4JKcP9kTZz5kyn8OHKyc9xsQ2bJWIxW8RszDUnnXSSU1px+WTsReTRngPJDW0YG1eIkx0K/Pbbb0694/0+ecQuYIxLKm6cZVseebQ5RwzmXXfdla2wwgotj4zZ1sjjTjvt5FRKbGAqMjfTP8gt6idqtU8ecd2eOHGi+x1zrcguZcen64SA1mnNASHQvQiIPHav7dTzHAS0KDV7auTFPH700UeuZipxbahMkKZ2zTbwMTWM++w9/mabmDc22ah7xI/RiEfDZRCSRAvJo7nG5vUlTJjjX8+mHvXHT35jalfehh8lj9hIVDIjEbGYR66D6JEYh+snTZrk3HzbuVSGYwiTF4EDCqK5pXL9F198kVEbF3xihIhrpk2b5gg/BAilC/dLX9FEkSP2E3KOGooNypDHKko0/QjJI4obrrsoh7jTQrSNPHI9ynCoNpf5dOZhbP2dc845XVwof4fN4iWNOPvkcdy4ce5gAexwLzZVFztBulFQ/fls/cAVlxjUsBFrixJN7GaRkl9m3LqmOQhonW6OrTXS3kNA5LH3bNr4EWlRavYUyMu2aqiQcRQiRGbQdo3NNCplWfKIy6a5VJJJExdIXAEhFX/++WeUSLA5hzDhAuq7LdIvlMFHHnmk5f1cz8/Y+BPbRiwaahHlEayVJY+4aprSl5dtlWeSpRZSBEkiaUsn5HHYsGGO3BETOc8887gkMRDJquSRzK+MD0XUJ4/EfKIkcyhA7GLZPtYhj+utt56zN4mUIJEoy4NFHi2ms938jZFHXINxe+Vgg0MM5iwK9ZgxY9z8tEQ65rbqx/22e1csw2yzv4U0+iIEtE4XIaTfC4F0ERB5TNc26lmHCGhR6hC4Hrktz22VcgZkTyUukQQyxDGy8c9rECvcO6lZ5ycYseufe+45R4ggh8SQQSBw8YvFtw1EzCPlFnj/559/7lSfTTbZxHWtyG0VwsB9KIpFbqskzCE2EXLG2Pi3keqqbqv0ESWT+MGtttrKKYQQ0zJuq2aLmNsqBB9FDTXTMtmWJY/E/5E8CUW1itsqhB9FkaQxhn1IRCHa9It51t9uq6iAxH8S11rUfOWROcpcRr2FPJLICZtabGxIHs1tlXGSRVVNCPQXAlqn+wtJPUcIDD4CIo+Dj7neOMAIaFEaYIATf3y7hDnEPbKhhwwVxcNZ8hHcXNloDx8+vGXkKF3UsaPUBP/m7zxXSXsWCmR/xDzaMyzzJslaIAYkrymbMIekKpY4pV3CHKvdN3LkSEeUUCxRr2IJc3CDBF+y0UIuyVwaZls97bTT3HPADHJOK5swhzHyfLMxNqH+JHGlEDSSANHKkkdLQMMYYwlzcJfFxqNGjXIKMGMi4yikCuINCefffOfEVEybI7EDBUg84+dQg3FZbcx2/bdDCFRpxouKXtRC8mj/h4gzVzggYD6BRUgerYQHbsvMkTB+tujd+r0QyENA67TmhhDoXgREHrvXdup5DgJalJo9NdqRx1jpiTy0IEIQHQhAWPLC6hxyrylPptJAIiEZloX066+/doSHQvBk1uxP8mhkggQxVjKkbKkOXF/JIEprRx7D8iaWlAXChhsq8YpGKigiT9KYtddeu4WQWKkOlEYjL6hnVnqjTKkOVGL6QpIYszFlNCDkJA2CgForSx653saHmzHkHzJK++mnnxwJRcm1bKKGE7GVlFvxs9nGyCMkmhhDSmCEJUgo7UFsJkmXSOTkl41p1/+8/tJnYm2Za7gJ8z7IdEgerdQKnwViFiGGYBeL4bXPS8zWkE36jwpL6RBqO6oJgbIIaJ0ui5SuEwLpISDymJ5N1KOaCGhRqglgl9+elzDHL3pP8XVzm2w3XMgJSURItEMiFDKB8hxiDSEEkBYyjjLnjAChClkxdcgd10J8jCz5imedUh2bbbaZ6zplG3AFpQC9JS2xeo73339/X78hlVb4njFBhHCt9MmjX5Sen5PdE2JKRllItClTRp55D/2ApFhCIr9wfIzIo/5COlDyLJ7Ur+cIriSDAS/IF+QHBdOvk+jHtaIKQqggTJ2QR7/mImrstttu64gcaiSuqX6NTyOPJEHylVPemxc/afUQY+MibtKP/yzTf/oLfiQeIk4Wd11Kk5iteIY/L0PyyO/toMM/zIiRR66dMWOGI5i4+JIhFwWasfBz5jq2Qsm3GNYu//pQ9wcJAa3TgwS0XiMEBgABkccBAFWPHFoEtCgNLf5D/fZ2CXNGjBjhCBCKYpigJq/fqDMobJA+NsuoZ9S94xmoVb4rHwrNhAkTHEmDOOJWiDIHuaNmHm6KbOxR/Wj9QR6tviEJdFCwLDaNn+OKibpHfUUystKfY445xl3jZ2jNS5jDWMmkefLJJ7tENP5YiZm84oorMtRGMMe9lwL0uHWCMy1PBaYsB8lmeL6v3oEffZk+fbq7F0KCeywE3XfrtOfSB3/MZchXzM64juICjMJI32jU0YQ0oRyaimw4xRLEtEu+w7ggyhxCkF2WcZGkhnjaJZZYYpYuFSmn1l8OQHCJZq6BP7GkKI/YzGwVI4+WvZbDEOYIMcB55JHOma3JrMqBCuQZfDhsYG6X/SwN9XeD3p8OAlqn07GFeiIEqiIg8lgVMV2fPAJalJI3kTooBISAEBACDUZA63SDja+hdz0CIo9db0INIERAi5LmhBAQAkJACAiBdBHQOp2ubdQzIVCEgMhjEUL6fdchoEWp60ymDgsBISAEhECDENA63SBja6g9h4DIY8+ZVAPSoqQ5IASEgBAQAkIgXQS0TqdrG/VMCBQhIPJYhJB+33UIaFHqOpOpw0JACAgBIdAgBLRON8jYGmrPISDy2HMm1YC0KGkOCAEhIASEgBBIFwGt0+naRj0TAkUIiDwWIaTfdx0CWpS6zmTqsBAQAkJACDQIAa3TDTK2htpzCIg89pxJNSAtSpoDQkAICAEhIATSRUDrdLq2Uc+EQBECIo9FCOn3XYeAFqWuM5k6LASEgBAQAg1CQOt0g4ytofYcAiKPPWdSDUiLkuaAEBACQkAICIF0EdA6na5tmtAz5p9aPQRA8J9//vmn3lN0txBIBAEtSokYQt0QAkJACAgBIRBBQOu0psVQIqD5Vw99KY/18NPdCSKgL4UEjaIuCQEhIASEgBD4PwS0TmsqDCUCmn/10Bd5rIef7k4QAX0pJGgUdUkICAEhIASEgMij5kACCGifWM8IIo/18NPdCSKgL4UEjaIuCQEhIASEgBAQedQcSAAB7RPrGUHksR5+ujtBBPSlkKBR1CUhIASEgBAQAiKPmgMJIKB9Yj0jiDzWw093J4iAvhQSNIq6JASEgBAQAkJA5FFzIAEEtE+sZwSRx3r46e4EEdCXQoJGUZeEgBAQAkJACIg8ag4kgID2ifWMIPJYDz/dnSAC+lJI0CjqkhAQAkJACAgBkUfNgQQQ0D6xnhFEHuvhp7sTREBfCgkaRV0SAkJACAgBISDyqDmQAALaJ9YzgshjPfx0d4II6EshQaOoS0JACAgBISAERB41BxJAQPvEekYQeayHn+5OEAF9KSRoFHVJCAgBISAEhIDIo+ZAAghon1jPCCKP9fDT3QkioC+FBI2iLgkBISAEhIAQEHnUHEgAAe0T6xlB5LEefro7QQT0pZCgUdQlISAEhIAQEAIij5oDCSCgfWI9I4g81sNPdyeIgL4UEjSKuiQEhIAQEAJCQORRcyABBLRPrGcEkcd6+OnuBBHQl0KCRlGXhIAQEAJCQAiIPGoOJICA9on1jCDyWA8/3Z0gAvpSSNAo6pIQEAJCQAgIAZFHzYEEENA+sZ4RRB7r4ae7E0RAXwoJGkVdEgJCQAgIASEg8qg5kAAC2ifWM4LIYz38dHeCCOhLIUGjqEtCQAgIASEgBEQeNQcSQED7xHpGEHmsh5/uThABfSkkaBR1SQgIASEgBISAyKPmQAIIaJ9Yzwh95LHeY3S3EBACQkAICAEhIASEgBAQAkJACPQ6Av8LqYpMGztdHS8AAAAASUVORK5CYII=;" vertex="1" parent="1">
          <mxGeometry x="140" y="560" width="883.02" height="720" as="geometry" />
        </mxCell>
        <mxCell id="gx2m8ANJ89_CgAaHZRdq-28" style="edgeStyle=orthogonalEdgeStyle;rounded=0;orthogonalLoop=1;jettySize=auto;html=1;exitX=0;exitY=0.5;exitDx=0;exitDy=0;entryX=0;entryY=0.5;entryDx=0;entryDy=0;" parent="1" target="MUi1yYkGbGkddvzHHs3n-1" edge="1">
          <mxGeometry relative="1" as="geometry">
            <mxPoint x="150" y="805.1428571428571" as="sourcePoint" />
          </mxGeometry>
        </mxCell>
        <mxCell id="gx2m8ANJ89_CgAaHZRdq-30" style="edgeStyle=orthogonalEdgeStyle;rounded=0;orthogonalLoop=1;jettySize=auto;html=1;exitX=1;exitY=0.5;exitDx=0;exitDy=0;entryX=0;entryY=0.25;entryDx=0;entryDy=0;" parent="1" source="MUi1yYkGbGkddvzHHs3n-1" target="gx2m8ANJ89_CgAaHZRdq-29" edge="1">
          <mxGeometry relative="1" as="geometry">
            <Array as="points">
              <mxPoint x="670" y="805" />
              <mxPoint x="670" y="855" />
              <mxPoint x="470" y="855" />
              <mxPoint x="470" y="893" />
            </Array>
          </mxGeometry>
        </mxCell>
        <mxCell id="gx2m8ANJ89_CgAaHZRdq-41" style="edgeStyle=orthogonalEdgeStyle;rounded=0;orthogonalLoop=1;jettySize=auto;html=1;exitX=0.25;exitY=1;exitDx=0;exitDy=0;entryX=0.5;entryY=1;entryDx=0;entryDy=0;startArrow=classic;startFill=1;" parent="1" source="MUi1yYkGbGkddvzHHs3n-1" target="gx2m8ANJ89_CgAaHZRdq-36" edge="1">
          <mxGeometry relative="1" as="geometry" />
        </mxCell>
        <mxCell id="MUi1yYkGbGkddvzHHs3n-1" value="&lt;span style=&quot;font-size: 14px;&quot;&gt;Проверка данных бронирования&lt;br&gt;&lt;/span&gt;" style="html=1;align=center;verticalAlign=top;rounded=1;absoluteArcSize=1;arcSize=10;dashed=0;whiteSpace=wrap;" parent="1" vertex="1">
          <mxGeometry x="270" y="780" width="220" height="50" as="geometry" />
        </mxCell>
        <mxCell id="gx2m8ANJ89_CgAaHZRdq-5" value="&lt;font style=&quot;font-size: 11px;&quot;&gt;Данные о&lt;br&gt;бронировании&lt;br&gt;&lt;/font&gt;" style="text;html=1;strokeColor=none;fillColor=none;align=center;verticalAlign=middle;whiteSpace=wrap;rounded=0;" parent="1" vertex="1">
          <mxGeometry x="140" y="790" width="140" height="30" as="geometry" />
        </mxCell>
        <mxCell id="gx2m8ANJ89_CgAaHZRdq-32" style="edgeStyle=orthogonalEdgeStyle;rounded=0;orthogonalLoop=1;jettySize=auto;html=1;exitX=0;exitY=0.75;exitDx=0;exitDy=0;entryX=0;entryY=0.75;entryDx=0;entryDy=0;" parent="1" target="gx2m8ANJ89_CgAaHZRdq-29" edge="1">
          <mxGeometry relative="1" as="geometry">
            <mxPoint x="380" y="917.7142857142858" as="sourcePoint" />
          </mxGeometry>
        </mxCell>
        <mxCell id="gx2m8ANJ89_CgAaHZRdq-37" style="edgeStyle=orthogonalEdgeStyle;rounded=0;orthogonalLoop=1;jettySize=auto;html=1;exitX=1;exitY=0.5;exitDx=0;exitDy=0;entryX=0;entryY=0.5;entryDx=0;entryDy=0;" parent="1" source="gx2m8ANJ89_CgAaHZRdq-29" target="gx2m8ANJ89_CgAaHZRdq-36" edge="1">
          <mxGeometry relative="1" as="geometry">
            <Array as="points">
              <mxPoint x="890" y="905" />
              <mxPoint x="890" y="950" />
              <mxPoint x="660" y="950" />
              <mxPoint x="660" y="995" />
            </Array>
          </mxGeometry>
        </mxCell>
        <mxCell id="gx2m8ANJ89_CgAaHZRdq-42" style="edgeStyle=orthogonalEdgeStyle;rounded=0;orthogonalLoop=1;jettySize=auto;html=1;exitX=0.5;exitY=1;exitDx=0;exitDy=0;entryX=0.5;entryY=1;entryDx=0;entryDy=0;" parent="1" target="gx2m8ANJ89_CgAaHZRdq-29" edge="1">
          <mxGeometry relative="1" as="geometry">
            <mxPoint x="600" y="1039.9999999999998" as="sourcePoint" />
          </mxGeometry>
        </mxCell>
        <mxCell id="gx2m8ANJ89_CgAaHZRdq-29" value="&lt;span style=&quot;font-size: 14px;&quot;&gt;Взаимодействие с банковской&lt;br&gt;системой&lt;br&gt;&lt;/span&gt;" style="html=1;align=center;verticalAlign=top;rounded=1;absoluteArcSize=1;arcSize=10;dashed=0;whiteSpace=wrap;" parent="1" vertex="1">
          <mxGeometry x="490" y="880" width="220" height="50" as="geometry" />
        </mxCell>
        <mxCell id="gx2m8ANJ89_CgAaHZRdq-31" value="&lt;font style=&quot;font-size: 11px;&quot;&gt;Результат проверки данных&lt;br&gt;о бронировании&lt;br&gt;&lt;/font&gt;" style="text;html=1;strokeColor=none;fillColor=none;align=center;verticalAlign=middle;whiteSpace=wrap;rounded=0;" parent="1" vertex="1">
          <mxGeometry x="500" y="790" width="160" height="30" as="geometry" />
        </mxCell>
        <mxCell id="gx2m8ANJ89_CgAaHZRdq-33" value="&lt;font style=&quot;font-size: 11px;&quot;&gt;Идентификатор&lt;br&gt;клиента&lt;br&gt;&lt;/font&gt;" style="text;html=1;strokeColor=none;fillColor=none;align=center;verticalAlign=middle;whiteSpace=wrap;rounded=0;" parent="1" vertex="1">
          <mxGeometry x="360" y="900" width="140" height="30" as="geometry" />
        </mxCell>
        <mxCell id="gx2m8ANJ89_CgAaHZRdq-39" style="edgeStyle=orthogonalEdgeStyle;rounded=0;orthogonalLoop=1;jettySize=auto;html=1;exitX=1;exitY=0.5;exitDx=0;exitDy=0;" parent="1" source="gx2m8ANJ89_CgAaHZRdq-36" edge="1">
          <mxGeometry relative="1" as="geometry">
            <mxPoint x="1010" y="994.7931034482758" as="targetPoint" />
          </mxGeometry>
        </mxCell>
        <mxCell id="gx2m8ANJ89_CgAaHZRdq-36" value="&lt;span style=&quot;font-size: 14px;&quot;&gt;Формирование&lt;br&gt;счета&lt;br&gt;&lt;/span&gt;" style="html=1;align=center;verticalAlign=top;rounded=1;absoluteArcSize=1;arcSize=10;dashed=0;whiteSpace=wrap;" parent="1" vertex="1">
          <mxGeometry x="680" y="970" width="220" height="50" as="geometry" />
        </mxCell>
        <mxCell id="gx2m8ANJ89_CgAaHZRdq-38" value="&lt;font style=&quot;font-size: 11px;&quot;&gt;Результат подтверждения платежа от банковской системы&lt;br&gt;&lt;/font&gt;" style="text;html=1;strokeColor=none;fillColor=none;align=center;verticalAlign=middle;whiteSpace=wrap;rounded=0;" parent="1" vertex="1">
          <mxGeometry x="720" y="890" width="170" height="30" as="geometry" />
        </mxCell>
        <mxCell id="gx2m8ANJ89_CgAaHZRdq-40" value="&lt;font style=&quot;font-size: 11px;&quot;&gt;Счет&lt;br&gt;&lt;/font&gt;" style="text;html=1;strokeColor=none;fillColor=none;align=center;verticalAlign=middle;whiteSpace=wrap;rounded=0;" parent="1" vertex="1">
          <mxGeometry x="870" y="970" width="170" height="30" as="geometry" />
        </mxCell>
        <mxCell id="gx2m8ANJ89_CgAaHZRdq-43" value="&lt;font style=&quot;font-size: 11px;&quot;&gt;Система&lt;br&gt;&lt;/font&gt;" style="text;html=1;strokeColor=none;fillColor=none;align=center;verticalAlign=middle;whiteSpace=wrap;rounded=0;" parent="1" vertex="1">
          <mxGeometry x="430" y="1010" width="140" height="30" as="geometry" />
        </mxCell>
        <mxCell id="U41e8tuTFeEFkpECOtlq-2" value="231" style="text;html=1;strokeColor=none;fillColor=none;align=center;verticalAlign=middle;whiteSpace=wrap;rounded=0;" vertex="1" parent="1">
          <mxGeometry x="440" y="810" width="60" height="30" as="geometry" />
        </mxCell>
        <mxCell id="U41e8tuTFeEFkpECOtlq-3" value="232" style="text;html=1;strokeColor=none;fillColor=none;align=center;verticalAlign=middle;whiteSpace=wrap;rounded=0;" vertex="1" parent="1">
          <mxGeometry x="660" y="905" width="60" height="30" as="geometry" />
        </mxCell>
        <mxCell id="U41e8tuTFeEFkpECOtlq-4" value="233" style="text;html=1;strokeColor=none;fillColor=none;align=center;verticalAlign=middle;whiteSpace=wrap;rounded=0;" vertex="1" parent="1">
          <mxGeometry x="850" y="1000" width="60" height="30" as="geometry" />
        </mxCell>
      </root>
    </mxGraphModel>
  </diagram>
  <diagram id="30CSTh-y9SVbLgZfz-_A" name="Страница — 2">
    <mxGraphModel dx="1624" dy="840" grid="1" gridSize="10" guides="1" tooltips="1" connect="1" arrows="1" fold="1" page="1" pageScale="1" pageWidth="3300" pageHeight="2339" math="0" shadow="0">
      <root>
        <mxCell id="0" />
        <mxCell id="1" parent="0" />
      </root>
    </mxGraphModel>
  </diagram>
</mxfile>
